<?xml version="1.0" standalone="no"?>
<!DOCTYPE svg PUBLIC "-//W3C//DTD SVG 20010904//EN"
 "http://www.w3.org/TR/2001/REC-SVG-20010904/DTD/svg10.dtd">
<svg version="1.0" xmlns="http://www.w3.org/2000/svg"
 width="1024.000000pt" height="1024.000000pt" viewBox="0 0 1024.000000 1024.000000"
 preserveAspectRatio="xMidYMid meet">

<g transform="translate(0.000000,1024.000000) scale(0.100000,-0.100000)"
fill="#000000" stroke="none">
<path d="M0 5120 l0 -5120 5120 0 5120 0 0 5120 0 5120 -5120 0 -5120 0 0
-5120z m7453 4249 c-17 -17 -37 -1 -22 17 8 10 15 12 23 4 7 -7 7 -13 -1 -21z
m-1223 -143 c72 -22 100 -37 181 -93 81 -56 125 -100 169 -170 26 -40 28 -41
37 -21 14 31 26 -169 28 -442 1 -266 5 -428 10 -415 2 6 7 50 10 99 5 57 10
84 16 75 5 -8 9 -33 9 -55 0 -47 11 -60 58 -66 l32 -5 0 98 c0 54 4 101 10
104 6 4 10 -36 10 -114 0 -127 4 -151 26 -151 15 0 33 -28 32 -50 -1 -8 0 -28
2 -45 2 -26 4 -24 11 15 11 66 11 155 -2 205 -8 33 -8 53 2 82 7 21 15 99 19
173 l7 135 1 -117 c2 -127 6 -148 30 -148 9 0 26 -10 39 -21 24 -24 21 -26 38
27 13 42 17 -11 16 -211 -1 -199 3 -238 24 -205 4 6 15 8 26 5 10 -4 19 -2 19
3 0 5 26 31 58 58 l57 48 -42 -45 c-24 -25 -43 -50 -43 -56 0 -7 -10 -19 -22
-27 -12 -9 -19 -18 -16 -21 3 -3 13 1 22 10 29 30 36 7 36 -123 0 -70 4 -133
9 -141 7 -11 18 -6 55 24 35 29 46 44 46 67 0 33 19 44 49 28 32 -17 25 -34
-29 -76 -27 -21 -50 -42 -50 -47 0 -5 14 3 31 17 17 14 41 26 53 26 13 0 36
10 52 22 17 14 7 -2 -25 -40 -30 -34 -57 -62 -61 -62 -10 0 -50 -40 -50 -50 0
-5 44 -9 100 -9 100 1 100 1 106 27 12 55 14 50 18 -45 1 -14 -7 -18 -39 -18
-190 -2 -195 -3 -195 -31 0 -20 4 -25 16 -20 9 3 64 6 122 6 l107 1 72 67 73
67 8 175 9 175 3 -150 c2 -82 4 -154 5 -160 2 -5 3 -14 4 -18 0 -4 11 -2 24 4
18 9 20 9 10 -2 -18 -18 -16 -26 8 -32 24 -6 21 -30 -4 -35 -10 -2 -17 3 -17
12 0 33 -42 14 -124 -56 l-86 -73 3 -126 2 -125 63 -58 c50 -47 62 -64 62 -88
0 -32 35 -98 51 -98 5 0 9 -6 9 -14 0 -8 11 -28 25 -44 13 -16 22 -32 19 -35
-3 -3 -1 -8 5 -12 13 -7 12 -13 20 140 6 110 4 121 -13 136 -12 10 -17 22 -13
32 8 22 36 22 52 1 10 -14 15 -15 36 -4 23 13 23 12 9 -6 -8 -10 -23 -25 -32
-32 -18 -13 -26 -83 -10 -82 4 1 33 25 66 54 l58 53 -41 44 c-22 24 -41 50
-41 56 0 14 26 18 34 5 3 -5 18 -7 33 -5 36 5 87 -34 78 -59 -4 -9 -49 -53
-101 -98 l-94 -81 0 -81 0 -81 58 6 57 6 50 -49 c27 -27 50 -48 52 -47 1 2 5
61 8 132 4 72 10 191 14 265 l8 135 1 -121 2 -120 149 -3 c177 -3 170 -8 173
126 l2 88 3 -85 c3 -60 9 -90 20 -102 9 -10 13 -21 9 -25 -4 -4 -11 -1 -15 6
-7 11 -10 10 -17 -2 -9 -16 -90 -24 -256 -26 l-68 -1 0 -152 0 -153 75 -79 75
-78 0 -63 c0 -54 3 -63 20 -68 11 -3 20 -12 20 -21 0 -9 -9 -21 -20 -28 -16
-10 -20 -24 -20 -68 0 -30 3 -65 6 -77 l6 -23 18 23 c10 13 21 44 25 71 9 57
27 67 61 35 19 -18 24 -32 22 -59 -3 -30 -8 -36 -35 -45 -27 -7 -33 -14 -33
-37 0 -24 3 -27 18 -19 9 5 28 21 41 35 22 23 24 36 29 152 l5 126 -59 59
c-36 37 -67 59 -80 59 -13 0 -30 7 -39 17 -30 30 -1 103 42 103 21 0 46 -48
40 -78 -5 -24 3 -37 54 -92 l59 -64 0 -131 0 -131 -45 -44 c-25 -24 -45 -47
-45 -51 0 -4 9 -9 20 -12 28 -7 25 -35 -5 -43 -23 -6 -25 -10 -25 -71 0 -59 1
-63 16 -49 21 22 29 20 42 -9 9 -18 19 -25 41 -25 38 0 54 -22 57 -79 1 -27
10 -61 20 -77 l19 -28 7 40 c4 21 7 67 7 102 l1 64 -29 -7 c-17 -3 -32 -2 -36
5 -11 18 5 50 30 56 16 4 25 15 29 37 4 18 6 236 6 486 l-1 453 23 16 c13 9
33 28 45 42 12 14 23 20 23 14 0 -6 -12 -21 -26 -35 -14 -13 -30 -32 -36 -43
-9 -17 -7 -18 18 -12 l29 8 -27 -29 -27 -28 -2 -599 c-2 -595 -2 -599 19 -615
11 -9 24 -33 27 -53 8 -40 19 -53 78 -86 30 -18 42 -20 58 -11 30 16 33 6 10
-40 -12 -22 -21 -47 -21 -55 0 -22 21 -31 32 -13 17 31 48 40 68 22 18 -17 20
-16 31 9 7 15 20 26 31 26 27 0 18 -21 -18 -45 -32 -21 -94 -97 -94 -115 0 -5
4 -10 10 -10 5 0 21 -17 35 -37 14 -21 43 -51 65 -67 44 -33 49 -50 23 -78 -9
-10 -13 -21 -9 -26 13 -12 372 -15 394 -3 39 21 77 -18 47 -48 -13 -14 -18
-14 -44 2 -24 14 -53 17 -168 16 -76 -1 -149 -4 -163 -8 l-25 -7 35 -22 c19
-12 40 -22 46 -22 26 0 33 -26 16 -54 -17 -28 -16 -31 3 -72 11 -24 26 -44 33
-44 8 0 12 -11 11 -32 -2 -18 -2 -74 -1 -125 2 -91 2 -92 29 -95 30 -3 37 -16
23 -38 -8 -12 -13 -13 -29 -3 -18 12 -20 8 -26 -63 -4 -41 -11 -77 -16 -80 -5
-3 -9 -14 -9 -24 0 -26 -41 -116 -76 -166 -35 -48 -122 -129 -131 -121 -3 4 9
23 27 43 18 21 55 83 81 138 59 120 77 228 59 343 -23 141 -97 303 -180 394
l-49 54 44 -90 c24 -49 46 -108 50 -130 l6 -40 -25 51 c-13 29 -30 69 -37 90
-25 71 -194 217 -324 279 -91 44 -250 85 -334 86 -36 0 -75 4 -86 9 -17 6 -15
8 15 13 82 14 109 15 180 5 156 -21 303 -88 419 -193 23 -21 41 -34 41 -30 0
11 -57 83 -110 140 -26 28 -64 82 -84 120 -21 39 -56 90 -79 113 -40 42 -130
102 -152 102 -5 0 15 -14 46 -31 68 -37 125 -93 135 -134 l7 -30 -48 43 c-112
98 -267 132 -422 92 -48 -12 -41 8 10 30 58 25 153 43 194 37 29 -5 47 6 25
15 -5 2 -27 28 -50 59 -24 31 -59 68 -80 82 -36 25 -38 26 -106 13 -64 -13
-68 -12 -49 3 59 46 54 90 -28 259 -56 115 -72 137 -81 111 -3 -8 -11 -8 -28
2 -14 8 -26 14 -27 14 -1 0 -6 37 -12 82 -16 128 -69 213 -132 213 -13 0 -37
5 -55 12 -40 14 -53 5 -122 -87 -25 -33 -42 -52 -39 -42 4 10 7 27 7 37 0 25
72 114 123 151 l42 31 -35 -7 c-48 -10 -87 -32 -100 -54 -15 -29 -79 -66 -92
-53 -16 16 0 47 43 82 l42 33 -24 13 c-13 7 -31 13 -40 14 -20 0 -109 57 -109
69 0 5 7 17 16 25 14 14 20 14 62 -8 48 -24 245 -91 295 -101 16 -3 44 -23 63
-43 36 -39 103 -168 135 -262 21 -58 107 -209 143 -250 12 -14 52 -72 89 -130
36 -58 82 -121 103 -140 42 -40 38 -30 -22 55 -23 33 -56 87 -75 120 -18 33
-61 96 -96 140 -68 86 -130 197 -158 285 -22 67 -60 144 -93 187 -29 39 -120
85 -219 111 -88 23 -130 54 -183 132 -34 50 -47 61 -83 70 -23 5 -67 19 -97
29 -94 33 -96 33 -47 6 26 -14 47 -27 47 -30 0 -7 -144 7 -153 15 -4 4 4 41
18 83 44 132 36 169 -79 346 -59 91 -172 294 -350 631 -34 63 -80 142 -102
175 -44 65 -84 138 -84 154 0 6 32 34 70 62 164 119 219 305 154 527 -45 158
-84 205 -242 297 -76 44 -90 49 -160 53 -108 6 -176 -9 -257 -58 -109 -65
-142 -91 -186 -150 -22 -30 -43 -57 -44 -59 -6 -5 -166 50 -216 75 -57 28
-143 50 -232 60 -45 4 -70 11 -74 21 -4 11 -7 11 -17 0 -6 -7 -73 -25 -149
-40 -91 -18 -169 -41 -230 -66 -138 -59 -137 -59 -170 -6 -28 44 -55 62 -43
28 4 -11 -2 -8 -14 7 -11 14 -23 35 -26 47 -8 28 -63 66 -155 106 -67 28 -83
31 -174 31 -90 0 -105 -3 -155 -29 -69 -35 -163 -99 -191 -128 -78 -82 -118
-198 -120 -348 -1 -113 0 -116 59 -238 10 -18 54 -68 100 -109 45 -42 82 -84
82 -93 0 -9 -16 -41 -36 -70 -58 -86 -120 -190 -141 -239 -11 -25 -67 -128
-124 -230 -58 -102 -122 -219 -143 -260 -22 -41 -57 -101 -78 -133 -95 -140
-127 -245 -105 -347 l7 -35 -63 -22 c-131 -46 -192 -69 -205 -77 -7 -4 -31
-37 -54 -72 -44 -71 -91 -102 -184 -125 -55 -13 -140 -52 -167 -77 -21 -19
-91 -131 -85 -137 2 -2 27 27 57 64 56 73 95 100 187 131 76 26 219 60 252 60
25 -1 25 -2 10 -14 -26 -20 -23 -30 28 -81 25 -26 43 -52 41 -58 -3 -8 -24
-11 -62 -9 l-57 2 7 -27 c3 -16 13 -35 21 -44 17 -19 87 -189 80 -196 -2 -2
-23 27 -46 66 -23 39 -46 71 -51 71 -5 0 -39 32 -76 71 -38 39 -84 79 -103 88
-76 40 -78 31 -9 -36 83 -80 141 -168 132 -202 l-6 -22 -28 27 c-16 15 -29 24
-29 18 0 -5 -13 5 -28 22 -15 17 -38 37 -52 44 -14 7 -41 26 -61 41 -20 16
-46 29 -57 29 -52 0 -120 -141 -108 -226 3 -28 0 -52 -10 -73 -8 -17 -15 -56
-15 -86 0 -30 -5 -55 -10 -55 -5 0 -9 -24 -9 -54 0 -38 6 -60 20 -79 11 -14
20 -32 20 -41 0 -19 -29 -22 -34 -3 -2 6 -16 50 -31 96 -26 78 -27 89 -16 146
6 34 11 71 11 81 0 31 -24 -3 -48 -70 -12 -32 -35 -70 -50 -85 -25 -23 -30
-36 -35 -101 -9 -100 0 -129 43 -144 39 -14 127 -61 95 -51 -94 30 -215 55
-238 51 -16 -3 -43 -18 -60 -32 -31 -26 -97 -111 -97 -124 0 -4 29 -10 64 -14
74 -7 150 -31 167 -53 11 -13 8 -14 -27 -6 -21 4 -86 8 -144 7 -129 0 -171
-17 -254 -104 -63 -66 -73 -57 -21 19 20 28 32 51 27 51 -19 0 -63 -60 -96
-130 -30 -63 -57 -97 -159 -203 -77 -79 -136 -150 -158 -188 -19 -34 -44 -73
-57 -86 -68 -73 -122 -239 -122 -377 0 -128 65 -286 162 -392 21 -23 38 -44
38 -48 0 -15 -82 40 -118 78 -45 50 -116 199 -133 281 -25 127 -13 326 27 437
7 20 16 59 20 86 5 42 3 57 -15 85 l-21 34 34 39 c46 53 86 127 86 157 0 14 7
31 17 38 9 8 22 29 30 47 7 18 20 35 28 38 8 3 24 21 36 40 20 32 20 36 5 59
-9 13 -25 29 -36 35 -19 10 -20 7 -21 -52 -1 -82 -17 -40 -18 50 -1 57 -3 62
-23 63 -22 1 -22 1 2 8 20 5 26 15 31 46 l6 40 3 -45 c1 -25 3 -53 4 -64 0
-10 18 -33 39 -50 32 -25 40 -28 48 -16 5 8 8 38 5 65 -7 65 1 94 28 101 39 9
54 59 61 197 7 133 5 139 -35 115 -25 -16 -41 -1 -17 16 9 7 17 19 17 25 0 8
8 10 20 6 24 -8 28 20 4 29 -9 3 -81 6 -161 6 l-145 0 4 -31 c7 -43 -13 -49
-102 -34 -59 10 -79 18 -97 39 -26 31 -27 35 -10 56 46 59 118 66 173 18 l37
-33 153 0 c84 0 155 3 159 7 4 3 8 57 9 119 l3 112 -39 44 c-48 56 -48 64 0
24 58 -49 68 -59 83 -87 12 -24 12 -28 -9 -44 -19 -16 -22 -27 -22 -101 l0
-82 83 6 c45 4 102 7 127 7 30 0 40 3 31 9 -11 7 -13 27 -9 85 l5 77 -69 62
-68 62 0 198 -1 197 -42 0 c-23 0 -57 -4 -75 -9 -25 -8 -32 -7 -32 5 0 11 17
14 75 14 41 0 77 -1 80 -2 2 -2 7 -93 10 -203 7 -225 5 -219 94 -276 56 -36
69 -37 42 -3 -38 48 -22 46 37 -3 l57 -48 -37 42 c-20 23 -44 53 -54 68 -9 14
-23 24 -30 21 -19 -7 -22 26 -23 259 l-1 210 110 0 c87 0 113 3 121 15 6 9 8
54 4 115 -8 139 -8 135 -6 275 2 69 -2 137 -8 152 -7 19 -7 28 2 31 7 2 11 27
12 65 0 34 3 62 6 62 9 0 19 -213 21 -412 0 -105 4 -165 11 -161 12 7 27 -16
20 -34 -3 -8 -12 -12 -19 -9 -11 4 -14 -6 -14 -45 l0 -50 129 2 c70 1 133 -1
140 -5 6 -4 11 -1 11 6 0 7 3 29 6 49 6 33 4 37 -20 43 -15 4 -35 21 -46 38
l-19 31 26 34 c14 18 36 36 49 39 22 6 24 11 24 71 0 40 4 62 10 58 6 -3 10
-36 10 -72 0 -54 4 -71 21 -90 22 -22 22 -23 4 -69 -20 -53 -17 -151 7 -196
l15 -28 10 23 c12 26 17 368 7 423 l-6 35 -83 -2 c-84 -2 -110 4 -99 22 6 11
-23 49 -38 49 -12 0 -10 -44 3 -57 8 -8 7 -16 -2 -30 -11 -19 -14 -19 -40 -4
-38 21 -39 62 -4 85 20 13 24 22 19 39 -6 18 1 14 36 -17 39 -35 44 -37 50
-20 5 14 9 10 14 -19 7 -36 9 -38 39 -35 30 3 32 6 38 53 l6 50 1 -47 2 -47
62 -3 c40 -2 63 -8 66 -16 3 -9 -3 -12 -14 -10 -18 3 -19 -8 -19 -216 0 -160
3 -220 12 -223 24 -8 34 40 40 187 5 134 4 152 -12 177 l-19 28 25 -17 c14 -9
23 -24 21 -35 -1 -10 1 -80 4 -156 l6 -139 55 54 c30 29 63 64 73 78 l18 26
-26 -1 c-23 0 -27 4 -27 30 0 27 4 31 35 35 33 5 35 7 32 40 -3 49 32 88 81
92 34 2 37 5 37 33 0 23 -14 45 -60 94 -33 36 -57 67 -55 70 3 3 34 -23 68
-57 34 -34 67 -62 73 -62 6 0 10 -28 10 -72 -1 -48 3 -72 12 -75 9 -4 12 20
12 96 0 56 4 103 10 106 6 4 10 -12 10 -42 0 -70 15 -85 29 -29 6 26 19 50 30
56 11 5 27 17 36 27 16 15 15 18 -7 34 -12 10 -29 19 -37 19 -8 0 -11 6 -7 16
7 17 -20 43 -101 101 -29 20 -53 40 -53 46 0 5 28 -13 63 -40 34 -27 79 -59
100 -71 l37 -21 0 241 c0 133 3 239 6 236 5 -6 9 -127 13 -370 l1 -108 50 0
c40 0 50 3 50 17 0 13 3 14 12 5 18 -18 38 -14 38 7 0 10 -10 33 -23 52 -38
57 -41 65 -16 43 13 -12 35 -27 48 -34 21 -11 26 -10 37 5 17 23 2 60 -44 108
-20 21 -30 37 -22 35 8 -2 17 -5 20 -8 12 -14 69 -50 78 -50 6 0 19 16 31 35
11 19 32 40 46 47 25 11 25 13 25 121 0 78 -4 115 -13 126 -36 41 -106 151
-97 151 5 0 15 -9 22 -20 7 -11 15 -20 18 -20 3 0 4 45 2 101 -2 70 0 99 7 94
7 -4 11 -50 11 -118 1 -95 4 -116 19 -134 24 -28 31 -29 31 -3 0 11 -9 25 -20
32 -29 18 -25 25 11 20 31 -5 31 -5 27 -58 -4 -50 -3 -54 18 -54 12 0 29 11
38 25 12 19 24 24 52 23 21 -1 40 4 45 13 5 8 8 92 7 187 -2 94 0 172 3 172
15 0 19 -39 19 -183 1 -133 2 -149 14 -127 8 14 17 41 21 60 4 19 16 42 27 51
13 10 23 37 30 87 12 72 11 72 -19 114 -17 24 -45 72 -63 107 -96 191 -26 524
134 639 54 39 164 94 236 118 82 27 217 25 295 -6 88 -34 191 -98 254 -157 30
-29 62 -53 71 -53 15 0 139 48 179 69 10 6 66 23 123 37 88 22 115 25 188 20
143 -11 184 -23 398 -117 58 -26 70 -24 90 11 9 17 54 58 100 91 168 123 354
164 512 115z m452 -330 c1 -214 4 -269 15 -273 7 -3 13 -11 13 -18 0 -21 -20
-29 -35 -14 -10 11 -11 76 -7 297 2 155 6 281 9 279 2 -2 4 -124 5 -271z
m-704 203 c-18 -12 -91 -11 -84 0 4 5 27 9 52 9 28 -1 40 -4 32 -9z m303 -15
c17 -8 29 -17 27 -19 -1 -1 -34 3 -73 9 -50 9 -63 14 -45 18 45 10 61 8 91 -8z
m659 -44 c0 -5 -4 -10 -10 -10 -5 0 -10 5 -10 10 0 6 5 10 10 10 6 0 10 -4 10
-10z m508 -9 c15 -10 34 -20 42 -22 11 -3 4 -14 -24 -39 l-39 -35 16 32 c16
30 16 31 -9 48 -14 9 -32 14 -40 11 -19 -7 -18 -45 4 -69 17 -19 17 -20 -15
-3 -30 15 -32 19 -22 43 22 57 43 66 87 34z m-2350 -108 c-2 -89 -2 -91 -5
-26 -4 68 -5 73 -29 79 -48 12 -97 -3 -294 -94 -56 -25 -256 -145 -320 -191
l-35 -25 35 38 c35 37 120 93 259 170 93 51 67 62 -40 16 -39 -17 -73 -29 -75
-27 -9 9 126 70 193 88 43 10 96 26 119 34 22 9 67 19 100 24 103 15 94 24 92
-86z m214 63 c104 -27 183 -59 163 -66 -16 -6 -15 -9 11 -26 16 -11 44 -27 63
-34 19 -8 53 -30 75 -49 23 -20 59 -47 79 -61 20 -14 37 -29 37 -33 0 -10 -39
10 -65 33 -11 10 -47 33 -79 51 -33 17 -89 49 -125 71 -149 87 -212 112 -278
113 -47 0 -63 4 -63 14 0 17 93 10 182 -13z m-2374 -15 c-13 -15 -25 -27 -26
-25 -6 4 32 53 41 54 5 0 -2 -13 -15 -29z m310 -77 c17 -12 22 -24 20 -47 -2
-26 -9 -33 -35 -41 -40 -11 -63 5 -63 45 0 28 22 59 43 59 7 0 23 -7 35 -16z
m4222 -119 c0 -8 -7 -15 -15 -15 -8 0 -15 7 -15 15 0 8 7 15 15 15 8 0 15 -7
15 -15z m-2370 -20 l0 -25 -112 1 c-108 1 -111 1 -80 15 19 8 66 18 105 23 40
5 75 9 80 10 4 0 7 -10 7 -24z m2005 0 c17 -14 26 -25 20 -26 -5 0 -22 -3 -36
-5 -30 -5 -52 16 -43 40 8 22 24 20 59 -9z m-1857 5 c45 0 17 -10 -52 -18 -62
-8 -66 -7 -66 11 0 18 5 19 46 13 26 -3 58 -6 72 -6z m-2228 -15 c0 -2 -7 -5
-15 -9 -9 -3 -15 0 -15 9 0 9 6 12 15 9 8 -4 15 -7 15 -9z m580 6 c0 -6 -4
-13 -10 -16 -5 -3 -10 1 -10 9 0 9 5 16 10 16 6 0 10 -4 10 -9z m2235 -107
l50 -46 -50 38 c-68 52 -71 54 -59 54 5 0 32 -21 59 -46z m-1425 23 c0 -1 -33
-34 -72 -72 l-73 -70 70 73 c64 67 75 77 75 69z m2862 -365 c9 -17 9 -25 0
-34 -15 -15 -15 -99 0 -133 9 -19 9 -28 0 -37 -20 -20 -16 -224 5 -259 16 -27
16 -30 1 -45 -12 -13 -20 -14 -37 -5 -25 14 -26 24 -5 56 13 20 15 45 11 147
-3 68 -5 130 -5 138 0 8 1 53 2 100 2 47 5 166 7 265 l3 180 3 -175 c2 -110 7
-183 15 -198z m-132 328 c0 -5 -2 -10 -4 -10 -3 0 -8 5 -11 10 -3 6 -1 10 4
10 6 0 11 -4 11 -10z m278 -118 c-19 -21 -40 -36 -46 -34 -8 2 -12 -13 -12
-48 l0 -51 48 37 c26 21 63 51 82 68 19 16 -2 -7 -47 -52 -73 -75 -82 -88 -88
-131 -5 -39 -3 -52 12 -66 13 -13 14 -20 5 -23 -9 -3 -12 -63 -12 -252 0 -155
-4 -251 -10 -255 -7 -4 -10 79 -10 241 0 223 -2 248 -17 260 -17 13 -17 15 -2
27 13 10 17 38 21 137 5 115 4 127 -15 147 l-20 23 39 42 39 43 34 -37 33 -38
-34 -38z m-3828 83 c0 -8 -4 -15 -10 -15 -5 0 -10 7 -10 15 0 8 5 15 10 15 6
0 10 -7 10 -15z m4004 -27 c-3 -5 -12 -4 -20 3 -7 6 -11 15 -8 21 3 5 12 4 20
-3 7 -6 11 -15 8 -21z m-577 0 c-2 -19 2 -22 21 -20 15 2 22 -2 22 -13 0 -16
-38 -37 -52 -28 -12 6 -10 83 2 83 5 0 9 -10 7 -22z m-4981 -14 c8 -32 -6 -46
-42 -42 -51 6 -40 68 12 68 17 0 25 -7 30 -26z m6088 -16 c20 -28 4 -58 -29
-58 -28 0 -49 31 -40 60 9 27 50 26 69 -2z m-6429 2 c3 -5 1 -10 -4 -10 -6 0
-11 5 -11 10 0 6 2 10 4 10 3 0 8 -4 11 -10z m1770 -40 c3 -5 -1 -10 -9 -10
-9 0 -16 5 -16 10 0 6 4 10 9 10 6 0 13 -4 16 -10z m135 -24 c0 -19 -17 -29
-37 -22 -12 5 -13 9 -3 21 16 19 40 19 40 1z m3103 -8 c6 -19 -3 -38 -18 -38
-18 0 -28 17 -21 35 7 18 33 20 39 3z m-1603 -38 c0 -26 -4 -30 -28 -30 -15 0
-74 -9 -131 -20 -58 -11 -106 -18 -108 -17 -3 4 126 64 177 83 19 7 47 13 63
14 23 0 27 -4 27 -30z m120 3 c53 -5 205 -57 216 -74 8 -13 -26 -11 -71 5 -22
8 -84 22 -138 32 -82 16 -97 21 -97 37 0 14 4 17 18 12 9 -4 42 -10 72 -12z
m1628 -37 c2 -10 -1 -23 -6 -28 -15 -15 -52 1 -52 22 0 33 52 39 58 6z m-3988
-21 c0 -19 -2 -35 -4 -35 -2 0 -6 16 -8 35 -2 19 0 35 4 35 4 0 8 -16 8 -35z
m4810 20 c0 -8 -7 -15 -15 -15 -8 0 -15 7 -15 15 0 8 7 15 15 15 8 0 15 -7 15
-15z m310 12 c0 -2 -12 -14 -27 -28 l-28 -24 24 28 c23 25 31 32 31 24z
m-3430 -27 c0 -5 -7 -10 -16 -10 -8 0 -12 5 -9 10 3 6 10 10 16 10 5 0 9 -4 9
-10z m-1550 -25 c11 -13 8 -15 -13 -15 -19 0 -25 4 -21 15 4 8 10 15 14 15 4
0 13 -7 20 -15z m2100 -1 c0 -12 -7 -15 -27 -11 -27 5 -167 -21 -231 -44 -18
-6 -35 -9 -37 -7 -2 2 42 20 98 40 113 40 197 49 197 22z m3520 -4 c0 -5 -4
-10 -10 -10 -5 0 -10 5 -10 10 0 6 5 10 10 10 6 0 10 -4 10 -10z m-2479 -17
c13 -16 12 -17 -3 -4 -10 7 -18 15 -18 17 0 8 8 3 21 -13z m932 -148 c4 -97
12 -173 19 -184 6 -10 8 -26 5 -35 -7 -19 -43 -22 -49 -3 -2 6 -3 80 -2 162 3
223 3 225 12 225 5 0 12 -74 15 -165z m687 155 c0 -5 -4 -10 -10 -10 -5 0 -10
5 -10 10 0 6 5 10 10 10 6 0 10 -4 10 -10z m-4655 -50 c0 -28 -4 -36 -22 -38
-29 -4 -48 30 -33 59 7 13 19 19 33 17 18 -2 22 -10 22 -38z m2409 -24 c49
-21 46 -28 -6 -12 -104 32 -148 49 -148 56 0 8 92 -18 154 -44z m2321 -8 c-88
-94 -98 -104 -94 -91 4 13 138 153 147 153 3 0 -21 -28 -53 -62z m-4577 9 l32
-33 -27 -26 -28 -26 -33 27 -33 28 18 31 c10 18 23 32 29 32 5 0 24 -15 42
-33z m1509 7 c-41 -22 -114 -47 -101 -34 11 11 102 49 119 49 6 0 -3 -7 -18
-15z m-1047 -19 c0 -19 -20 -29 -32 -17 -8 8 -7 16 2 26 14 17 30 12 30 -9z
m-2103 -1 c8 -21 -13 -42 -28 -27 -13 13 -5 43 11 43 6 0 13 -7 17 -16z m898
6 c-3 -5 -10 -10 -16 -10 -5 0 -9 5 -9 10 0 6 7 10 16 10 8 0 12 -4 9 -10z
m4630 -55 c0 -11 -7 -21 -16 -23 -18 -3 -33 23 -23 39 10 17 39 5 39 -16z
m-2655 10 c0 -2 -10 -9 -22 -15 -22 -11 -22 -10 -4 4 21 17 26 19 26 11z
m-517 -37 c-4 -7 -26 -40 -48 -73 -22 -33 -51 -81 -65 -106 -14 -25 -46 -78
-72 -118 -70 -105 -157 -281 -173 -351 -5 -20 3 -15 37 25 76 88 205 205 298
270 51 35 49 33 -25 -35 -197 -182 -355 -364 -355 -412 0 -9 -11 -28 -25 -40
-14 -13 -33 -48 -44 -78 -10 -29 -26 -59 -35 -65 -16 -12 -35 -63 -57 -152
-12 -51 -12 -56 16 -115 16 -35 38 -73 49 -85 11 -13 17 -25 14 -28 -12 -12
-99 119 -114 173 -29 99 -16 142 87 299 26 40 57 98 69 130 12 32 26 63 31 69
5 6 20 39 33 75 81 213 193 412 312 552 61 70 87 96 67 65z m-702 -20 c0 -7 0
-97 0 -200 l-1 -187 27 -3 c22 -2 29 -9 31 -31 3 -27 2 -28 -35 -25 l-38 3 0
227 c0 126 3 228 8 228 4 0 7 -6 8 -12z m3158 -178 c85 -142 255 -493 248
-513 -5 -17 -83 108 -139 223 -30 63 -90 168 -168 295 -54 87 -100 171 -100
181 1 18 121 -123 159 -186z m-2921 145 c4 -20 -15 -36 -35 -28 -17 6 -17 40
0 46 19 8 32 2 35 -18z m3972 15 c0 -5 -4 -10 -10 -10 -5 0 -10 5 -10 10 0 6
5 10 10 10 6 0 10 -4 10 -10z m385 -16 c-46 -7 -125 -8 -125 -1 0 4 33 6 73 6
39 -1 63 -3 52 -5z m-5960 -14 c3 -5 1 -10 -4 -10 -6 0 -11 5 -11 10 0 6 2 10
4 10 3 0 8 -4 11 -10z m5498 -4 c7 -19 -18 -42 -28 -26 -8 13 1 40 14 40 5 0
11 -6 14 -14z m157 -1 c0 -8 -6 -15 -14 -15 -17 0 -28 14 -19 24 12 12 33 6
33 -9z m-5038 -27 c-15 -15 -26 -4 -18 18 5 13 9 15 18 6 9 -9 9 -15 0 -24z
m4641 8 c7 -19 -18 -40 -38 -32 -8 3 -15 15 -15 26 0 14 7 20 24 20 13 0 26
-6 29 -14z m1025 -38 c-3 -7 -15 -13 -28 -13 -13 0 -25 6 -27 13 -3 8 6 12 27
12 21 0 30 -4 28 -12z m-6051 -24 c-9 -9 -28 6 -21 18 4 6 10 6 17 -1 6 -6 8
-13 4 -17z m-259 -1 c-4 -22 -22 -20 -26 1 -2 10 3 16 13 16 10 0 15 -7 13
-17z m396 -8 c-4 -8 -10 -12 -15 -9 -14 8 -10 24 6 24 9 0 12 -6 9 -15z m831
-24 c3 -5 1 -12 -5 -16 -5 -3 -10 1 -10 9 0 18 6 21 15 7z m4515 -22 c0 -18
-2 -19 -15 -9 -15 12 -12 30 6 30 5 0 9 -10 9 -21z m313 9 l82 -1 -100 -7
c-55 -4 -102 -6 -104 -4 -9 8 13 25 26 20 8 -3 51 -7 96 -8z m1088 -11 c-13
-13 -26 -3 -16 12 3 6 11 8 17 5 6 -4 6 -10 -1 -17z m-5640 -197 c3 -79 2 -85
-16 -85 -16 0 -19 6 -16 25 2 14 6 79 9 145 5 112 6 116 13 60 4 -33 9 -98 10
-145z m1589 158 c0 25 18 29 27 7 5 -14 7 -14 23 0 14 13 23 14 38 6 13 -7 22
-7 30 1 9 9 12 4 12 -22 l1 -35 16 29 c14 27 17 28 28 13 9 -13 14 -14 24 -4
9 9 14 9 21 -2 7 -12 11 -12 24 -2 13 11 17 10 24 -10 6 -15 11 -18 16 -11 11
18 26 14 26 -5 0 -13 3 -14 12 -5 22 22 29 12 13 -18 -18 -36 -4 -39 27 -8 26
26 78 34 78 12 0 -17 1 -17 36 -4 24 9 26 8 21 -10 -3 -11 -1 -20 5 -20 5 0 7
-4 4 -8 -2 -4 11 -6 30 -4 21 3 34 0 34 -7 0 -17 16 -13 56 14 38 26 74 33 74
14 0 -6 9 -8 22 -3 20 6 21 5 9 -10 -15 -17 -41 -22 -41 -6 0 5 -6 7 -14 4 -8
-3 -12 -13 -9 -25 7 -24 11 -24 48 1 33 22 45 25 45 11 0 -5 -11 -12 -25 -15
-45 -11 -25 -54 23 -47 44 5 25 -26 -43 -67 -27 -17 -83 -67 -124 -111 -58
-63 -89 -88 -147 -116 -52 -26 -82 -35 -99 -31 -20 5 -26 2 -31 -20 -9 -34
-24 -12 -24 34 0 24 10 45 35 75 36 42 43 57 25 57 -5 0 -10 -4 -10 -10 0 -6
-5 -9 -12 -7 -33 7 -54 -119 -33 -197 8 -28 7 -28 -25 -21 -21 5 -30 4 -26 -3
3 -6 -2 -12 -11 -14 -15 -3 -12 -8 15 -32 17 -16 32 -37 32 -47 0 -14 24 -39
87 -89 6 -5 17 -18 22 -27 9 -15 12 -16 20 -4 7 11 15 4 35 -27 14 -23 41 -49
58 -58 18 -9 44 -26 58 -38 16 -13 20 -15 11 -3 -21 27 -2 20 38 -14 90 -76
91 -76 71 -38 -16 28 6 25 34 -6 16 -17 34 -25 55 -25 42 0 31 16 -19 30 -22
6 -44 20 -50 30 -11 20 -2 27 16 11 5 -5 25 -12 46 -15 33 -6 36 -5 31 14 -5
19 -2 20 23 14 16 -4 40 -13 54 -20 22 -11 23 -13 7 -19 -9 -4 -27 -5 -39 -2
-13 4 -17 2 -11 -4 5 -5 34 -12 64 -15 l54 -6 -40 37 c-33 30 -36 36 -17 32
19 -5 21 -3 11 9 -9 11 -9 14 1 14 18 0 80 -40 80 -51 0 -6 5 -7 12 -3 8 5 0
17 -22 36 l-34 28 32 6 c27 6 31 10 26 30 -5 21 -3 24 21 24 27 0 28 0 10 20
-10 11 -13 20 -7 20 7 0 12 6 12 13 0 6 14 20 31 30 17 9 33 26 36 37 8 29 44
24 71 -11 21 -25 21 -29 6 -29 -15 0 -16 -2 -2 -17 15 -17 34 -92 26 -103 -1
-3 -10 -3 -18 -1 -11 2 -10 -3 5 -19 l20 -23 -23 8 c-22 6 -23 5 -13 -14 10
-17 9 -21 -4 -21 -13 0 -14 -4 -5 -21 14 -25 -4 -79 -25 -79 -8 0 -15 -6 -18
-12 -3 -10 -8 -10 -21 2 -16 13 -18 12 -16 -5 4 -33 0 -41 -10 -25 -8 13 -10
12 -10 -2 0 -11 -8 -18 -20 -18 -15 0 -21 -9 -26 -39 -5 -32 -10 -39 -28 -39
-11 1 -27 6 -33 11 -10 7 -13 4 -13 -12 0 -11 -4 -21 -10 -21 -5 0 -10 5 -10
10 0 19 -18 10 -23 -12 l-6 -22 -24 22 c-23 22 -25 22 -31 5 -7 -16 -9 -15
-22 10 -20 38 -27 34 -20 -10 6 -30 -2 -20 -39 52 -62 118 -72 129 -80 82 -4
-20 -4 -40 -1 -46 4 -5 2 -12 -3 -16 -6 -3 -8 -12 -5 -19 3 -8 1 -17 -5 -21
-6 -3 -11 -16 -11 -29 0 -12 -6 -29 -12 -36 -11 -13 -11 -13 2 -2 25 21 31 13
16 -23 -9 -20 -18 -58 -21 -86 -6 -54 -12 -64 -61 -112 -48 -46 -168 -83 -231
-72 -26 5 -156 59 -172 71 -2 2 2 17 9 34 7 17 16 27 19 22 3 -5 17 -11 29
-15 23 -5 23 -5 7 14 -21 22 -10 41 35 64 29 15 76 54 126 103 25 24 34 42 34
66 0 40 -22 72 -41 61 -7 -5 -22 -10 -34 -11 -11 -2 -58 -11 -105 -22 -77 -17
-93 -17 -165 -5 -44 7 -98 20 -120 28 -23 8 -50 15 -62 15 -29 0 -46 -33 -38
-70 7 -31 16 -42 138 -158 70 -67 77 -78 77 -112 0 -38 -1 -39 -57 -60 -45
-17 -72 -21 -119 -17 -94 7 -224 73 -224 114 0 7 -4 13 -9 13 -11 0 -24 38
-21 63 1 10 -4 24 -10 32 -7 8 -9 19 -5 25 4 6 1 17 -5 25 -10 12 -10 15 0 15
8 0 10 7 5 18 -4 9 -8 22 -9 29 -1 7 -10 21 -21 33 -14 16 -16 25 -8 43 9 19
7 24 -13 34 -26 12 -34 1 -34 -48 0 -17 -4 -28 -10 -24 -5 3 -16 -8 -25 -25
-16 -31 -35 -40 -35 -17 -1 6 -11 -6 -22 -28 -16 -29 -23 -35 -26 -22 -5 26
-22 20 -22 -8 0 -14 -4 -25 -10 -25 -12 0 -12 6 0 50 8 27 7 36 -5 43 -8 4
-15 15 -15 24 0 15 -2 15 -18 0 -28 -25 -35 -20 -16 11 13 23 11 21 -15 -7
-34 -39 -52 -37 -26 3 21 32 4 35 -18 4 l-16 -23 0 24 c-1 20 -3 22 -17 10
-14 -12 -16 -11 -13 6 3 11 -3 27 -11 36 -8 9 -22 26 -30 38 -8 12 -20 19 -27
17 -7 -3 -14 8 -18 25 -7 32 -15 35 -33 17 -20 -20 -14 7 8 35 17 22 18 26 4
31 -8 3 -12 10 -9 16 8 13 -1 13 -26 -1 -20 -10 -20 -9 -4 20 14 27 14 31 0
31 -9 0 -14 8 -12 22 1 16 -5 23 -23 28 -22 6 -25 11 -22 47 1 29 11 50 31 72
16 17 32 45 36 61 3 16 15 32 25 35 10 3 20 15 23 25 3 11 12 20 21 20 14 0
16 -12 14 -84 -3 -99 6 -116 66 -117 l41 -1 -35 -14 -35 -14 35 5 c31 4 33 3
17 -9 -22 -17 -13 -41 22 -56 19 -8 27 -18 26 -33 -3 -29 16 -35 108 -36 70
-1 77 -3 77 -21 0 -16 7 -20 34 -20 19 0 38 5 42 11 5 8 8 8 13 0 7 -11 16 -8
161 48 40 15 67 34 94 66 30 37 41 44 52 34 19 -15 42 -5 54 25 5 13 23 32 39
42 34 20 39 39 16 64 -15 16 -11 18 49 25 57 6 64 8 51 21 -12 12 -12 20 0 55
8 22 12 53 8 70 -8 41 -23 16 -16 -27 5 -29 2 -35 -28 -53 -45 -28 -49 -27
-42 14 5 30 3 34 -11 29 -11 -4 -16 -1 -16 11 0 9 -4 14 -9 11 -5 -3 -14 21
-20 53 -11 56 -34 102 -45 90 -3 -3 3 -29 14 -57 26 -67 25 -70 -7 -83 -38
-14 -83 7 -148 70 -30 30 -55 57 -55 61 0 12 -110 90 -166 118 -51 25 -52 26
-60 81 -4 31 -8 60 -9 65 0 6 14 18 31 28 32 18 32 18 62 -7 29 -25 52 -32 52
-17 0 4 30 8 67 9 72 3 87 9 60 24 -18 10 -24 39 -8 39 15 0 42 -31 36 -41 -4
-5 1 -9 10 -9 11 0 15 5 11 15 -7 20 -1 19 20 -2 16 -16 16 -16 10 5 -7 22 7
31 19 12 3 -5 14 -10 23 -10 12 0 13 3 4 12 -18 18 -15 24 20 47 l33 20 22
-21 23 -21 0 21z m-2255 -8 c3 -5 1 -10 -4 -10 -6 0 -11 5 -11 10 0 6 2 10 4
10 3 0 8 -4 11 -10z m4752 -102 c-2 -24 -4 -7 -4 37 0 44 2 63 4 43 2 -21 2
-57 0 -80z m83 87 c0 -8 -7 -15 -15 -15 -8 0 -15 7 -15 15 0 8 7 15 15 15 8 0
15 -7 15 -15z m-2850 -35 c0 -14 -14 -12 -28 2 -19 19 -14 30 8 18 11 -6 20
-15 20 -20z m1548 -19 c61 -33 256 -214 403 -376 53 -58 180 -268 205 -339 33
-91 10 -196 -66 -303 -63 -91 -82 -103 -32 -21 62 101 77 195 47 296 -9 28
-26 64 -38 79 -23 28 -96 148 -128 210 -9 18 -37 58 -62 90 -25 32 -73 93
-107 135 -64 81 -131 146 -217 210 -29 21 -53 44 -53 51 1 7 5 6 13 -4 7 -9
22 -21 35 -28z m-695 14 c-3 -13 -53 -20 -53 -7 0 15 13 23 35 20 11 -2 19 -7
18 -13z m1851 -23 c2 -4 1 -14 -4 -21 -10 -17 -31 -5 -23 14 6 16 19 20 27 7z
m-5406 -27 c3 -18 3 -19 -10 -3 -7 9 -22 19 -33 21 -12 3 -8 5 10 4 21 -1 31
-8 33 -22z m-64 -44 c-6 -8 -24 12 -24 28 0 31 15 34 21 4 3 -15 4 -30 3 -32z
m1076 -9 c0 -5 -23 9 -42 26 -10 8 -18 19 -18 24 0 6 14 -3 30 -19 17 -15 30
-29 30 -31z m1434 42 c10 -25 -1 -29 -14 -5 -6 12 -7 21 -1 21 5 0 12 -7 15
-16z m-1599 -4 c3 -5 1 -10 -4 -10 -6 0 -11 5 -11 10 0 6 2 10 4 10 3 0 8 -4
11 -10z m40 -50 c-44 -45 -55 -49 -55 -21 0 14 5 18 19 14 12 -3 26 5 42 25
13 16 26 28 28 25 3 -2 -13 -21 -34 -43z m4525 25 c-7 -8 -16 -15 -21 -15 -5
0 -9 7 -9 15 0 9 9 15 21 15 18 0 19 -2 9 -15z m140 -14 c0 -19 -23 -35 -34
-24 -14 15 -5 43 14 43 13 0 20 -7 20 -19z m-4336 -26 c3 -9 -1 -18 -10 -22
-19 -7 -39 11 -30 26 10 16 33 13 40 -4z m4491 -31 c0 -19 -5 -29 -15 -29 -16
0 -25 28 -16 51 10 25 31 10 31 -22z m-141 -27 c23 -17 14 -53 -15 -62 -41
-13 -68 43 -31 64 22 14 25 13 46 -2z m352 -8 c3 -6 2 -15 -2 -19 -12 -12 -38
5 -30 19 9 14 23 14 32 0z m-5136 -13 c0 -7 -7 -19 -15 -26 -19 -16 -41 1 -32
24 8 20 47 21 47 2z m-260 -16 c0 -12 -28 -25 -36 -17 -9 9 6 27 22 27 8 0 14
-5 14 -10z m-70 -32 c0 -6 -7 -5 -15 2 -8 7 -15 17 -15 22 0 6 7 5 15 -2 8 -7
15 -17 15 -22z m-750 12 c12 -7 12 -10 1 -10 -9 0 -12 -11 -9 -40 2 -28 0 -40
-9 -40 -9 0 -13 16 -13 50 0 51 4 57 30 40z m952 -27 c35 -34 35 -39 -2 -58
-38 -20 -53 -19 -16 1 l28 16 -20 20 c-26 26 -53 18 -45 -14 5 -22 5 -22 -13
-6 -17 17 -17 18 6 43 13 14 26 25 29 25 3 0 18 -12 33 -27z m67 -105 c1 -40
-3 -68 -9 -68 -6 0 -10 38 -9 98 2 109 16 85 18 -30z m136 92 c-5 -8 -11 -8
-17 -2 -6 6 -7 16 -3 22 5 8 11 8 17 2 6 -6 7 -16 3 -22z m-1078 -2 c-3 -8 -6
-5 -6 6 -1 11 2 17 5 13 3 -3 4 -12 1 -19z m6128 -33 c0 -22 -31 -33 -48 -16
-7 7 -6 15 3 26 17 21 45 15 45 -10z m-2614 -8 c-10 -9 -11 -8 -5 6 3 10 9 15
12 12 3 -3 0 -11 -7 -18z m2474 -1 c0 -22 -14 -29 -34 -17 -19 12 -6 43 16 39
10 -2 18 -12 18 -22z m1105 -2 c0 -8 -7 -14 -15 -14 -15 0 -21 21 -9 33 10 9
24 -2 24 -19z m343 2 c3 -8 0 -22 -7 -31 -11 -15 -13 -15 -25 -1 -15 18 -8 46
13 46 7 0 16 -6 19 -14z m-6663 -56 c0 -5 -7 -10 -14 -13 -10 -4 -13 -1 -9 9
3 8 -1 22 -8 32 -11 14 -9 13 9 -2 12 -11 22 -22 22 -26z m-70 20 c0 -5 -8
-10 -17 -10 -15 0 -16 2 -3 10 19 12 20 12 20 0z m-400 -20 c0 -5 -5 -10 -11
-10 -5 0 -7 5 -4 10 3 6 8 10 11 10 2 0 4 -4 4 -10z m153 -48 c6 -30 5 -32
-14 -22 -27 15 -34 37 -19 56 16 18 26 9 33 -34z m5907 34 c0 -15 -24 -28 -34
-19 -13 14 -5 33 14 33 11 0 20 -6 20 -14z m-6766 -22 c22 -22 20 -41 -6 -55
-18 -10 -24 -8 -40 11 -32 40 10 81 46 44z m3294 -3 c47 -25 102 -83 136 -144
30 -55 33 -72 10 -63 -10 4 -36 -1 -60 -10 -30 -11 -62 -15 -106 -12 -60 4
-63 6 -109 58 -27 31 -49 67 -52 84 -6 37 -6 37 35 45 22 5 37 16 46 34 16 33
47 35 100 8z m3280 -22 l28 -32 -21 -23 c-12 -13 -28 -24 -35 -24 -13 0 -49
39 -50 54 0 9 39 56 47 56 2 0 16 -14 31 -31z m377 -9 c3 -5 -3 -10 -14 -10
-12 0 -21 5 -21 10 0 6 6 10 14 10 8 0 18 -4 21 -10z m-5320 -24 c0 -25 -16
-30 -39 -13 -24 17 -12 39 17 35 14 -2 22 -10 22 -22z m-391 -8 c17 -28 -9
-49 -45 -36 -35 12 -37 31 -6 46 27 13 37 11 51 -10z m3066 3 c13 -25 13 -67
0 -92 -15 -27 -83 -59 -127 -59 -24 0 -50 9 -75 26 l-37 26 25 34 c52 68 190
110 214 65z m-3693 -7 c8 -21 -19 -46 -40 -38 -20 7 -22 25 -5 42 17 17 37 15
45 -4z m201 -12 c2 -7 -3 -12 -12 -12 -9 0 -16 7 -16 16 0 17 22 14 28 -4z
m1903 -15 c-13 -13 -26 -3 -16 12 3 6 11 8 17 5 6 -4 6 -10 -1 -17z m3639 -33
c0 -22 -14 -23 -39 -3 -14 11 -21 25 -17 34 5 14 8 14 31 -1 14 -9 25 -22 25
-30z m290 30 c0 -8 -5 -12 -10 -9 -6 4 -8 11 -5 16 9 14 15 11 15 -7z m-5970
-19 c0 -8 -6 -15 -14 -15 -17 0 -28 14 -19 24 12 12 33 6 33 -9z m6460 -30 c0
-8 -7 -15 -15 -15 -16 0 -20 12 -8 23 11 12 23 8 23 -8z m-2396 -11 c13 -33 4
-42 -22 -26 -7 5 -10 16 -6 25 8 21 20 22 28 1z m1512 -5 c10 -17 -13 -36 -27
-22 -12 12 -4 33 11 33 5 0 12 -5 16 -11z m564 -10 c0 -5 -4 -9 -10 -9 -5 0
-10 7 -10 16 0 8 5 12 10 9 6 -3 10 -10 10 -16z m-4150 -9 c0 -10 -31 -23 -38
-15 -8 7 19 35 29 29 5 -3 9 -9 9 -14z m4060 -19 c0 -23 -9 -31 -26 -24 -17 6
-18 40 -1 46 17 6 27 -1 27 -22z m-5421 0 c16 -11 8 -39 -14 -47 -9 -4 -25 2
-36 12 -19 17 -19 19 -3 31 21 15 34 16 53 4z m4861 -6 c6 -8 9 -23 5 -35 -5
-17 -13 -20 -38 -18 -21 2 -33 9 -35 21 -8 39 42 63 68 32z m838 -52 c-5 -26
-38 -29 -38 -4 0 15 6 21 21 21 14 0 19 -5 17 -17z m-183 -33 c3 -5 1 -10 -4
-10 -6 0 -11 5 -11 10 0 6 2 10 4 10 3 0 8 -4 11 -10z m-1920 -10 c3 -5 2 -10
-4 -10 -5 0 -13 5 -16 10 -3 6 -2 10 4 10 5 0 13 -4 16 -10z m2418 -6 c9 -9
-12 -46 -23 -39 -4 3 -6 14 -3 25 5 20 15 25 26 14z m-7003 -19 c0 -8 -4 -15
-10 -15 -5 0 -10 7 -10 15 0 8 5 15 10 15 6 0 10 -7 10 -15z m197 -107 c14
-15 13 -19 -12 -42 -16 -15 -38 -26 -51 -26 -13 0 -24 -7 -27 -17 -4 -15 -5
-15 -6 2 -1 11 -8 28 -16 39 -15 20 -9 42 23 78 14 17 16 17 44 0 16 -9 36
-25 45 -34z m97 43 c8 -12 -21 -34 -34 -26 -17 11 -11 35 9 35 11 0 22 -4 25
-9z m6421 -56 c0 -25 -37 -32 -54 -11 -18 21 -4 38 27 34 19 -2 27 -9 27 -23z
m-6110 -25 c3 -5 1 -10 -4 -10 -6 0 -11 5 -11 10 0 6 2 10 4 10 3 0 8 -4 11
-10z m5835 -35 c0 -8 -7 -15 -15 -15 -8 0 -15 7 -15 15 0 8 7 15 15 15 8 0 15
-7 15 -15z m1189 1 c8 -10 8 -16 -3 -25 -10 -9 -16 -8 -26 3 -12 15 -6 36 9
36 5 0 14 -6 20 -14z m-5985 -62 c9 -8 16 -19 16 -23 0 -11 -173 -32 -183 -22
-15 15 78 57 135 60 9 1 24 -6 32 -15z m4528 -9 c0 -5 -5 -11 -11 -13 -6 -2
-11 4 -11 13 0 9 5 15 11 13 6 -2 11 -8 11 -13z m-6252 -75 c0 -10 5 -22 10
-25 15 -9 -8 -35 -31 -35 -26 0 -34 36 -14 66 17 27 35 24 35 -6z m4496 -7
c-11 -11 -19 6 -11 24 8 17 8 17 12 0 3 -10 2 -21 -1 -24z m-2891 12 c33 -9
67 -23 77 -32 21 -19 24 -47 4 -40 -8 3 -41 11 -75 18 -87 17 -147 8 -201 -29
-25 -17 -46 -29 -48 -27 -5 5 50 109 62 117 19 13 119 9 181 -7z m895 -6 c0
-5 -4 -9 -10 -9 -5 0 -10 7 -10 16 0 8 5 12 10 9 6 -3 10 -10 10 -16z m75 -31
c6 -23 4 -27 -13 -25 -16 1 -19 7 -17 27 2 14 4 29 4 35 2 16 19 -9 26 -37z
m3030 17 c22 -21 33 -45 21 -45 -3 0 -21 10 -41 21 -39 24 -97 22 -190 -7 -66
-19 -72 -18 -46 10 29 31 77 44 164 45 60 1 71 -2 92 -24z m-5835 -15 c0 -13
-7 -20 -20 -20 -13 0 -20 7 -20 20 0 13 7 20 20 20 13 0 20 -7 20 -20z m7180
0 c0 -5 -2 -10 -4 -10 -3 0 -8 5 -11 10 -3 6 -1 10 4 10 6 0 11 -4 11 -10z
m-4217 -84 c6 -16 -2 -28 -14 -20 -12 7 -11 34 0 34 5 0 11 -6 14 -14z m2268
-79 c-10 -9 -11 -8 -5 6 3 10 9 15 12 12 3 -3 0 -11 -7 -18z m-5701 -47 c0 -5
-2 -10 -4 -10 -3 0 -8 5 -11 10 -3 6 -1 10 4 10 6 0 11 -4 11 -10z m7640 -10
c0 -5 -7 -10 -16 -10 -8 0 -12 5 -9 10 3 6 10 10 16 10 5 0 9 -4 9 -10z
m-7242 -22 c-3 -7 -11 -13 -18 -13 -7 0 -15 6 -17 13 -3 7 4 12 17 12 13 0 20
-5 18 -12z m7559 -24 c3 -8 -1 -22 -9 -30 -12 -12 -17 -12 -33 -1 -23 17 -14
47 15 47 11 0 23 -7 27 -16z m-3767 -13 c0 -5 -7 -12 -16 -15 -24 -9 -28 -7
-14 9 14 17 30 20 30 6z m4140 -21 c0 -5 -4 -10 -10 -10 -5 0 -10 5 -10 10 0
6 5 10 10 10 6 0 10 -4 10 -10z m-4137 -74 c-4 -21 -9 -23 -50 -21 -69 4 -76
24 -9 27 20 1 39 5 42 10 11 17 21 7 17 -16z m153 -2 c40 -8 14 -26 -32 -22
-28 2 -40 8 -42 21 -3 14 1 17 22 12 14 -3 38 -7 52 -11z m-486 -4 c0 -5 -5
-10 -11 -10 -5 0 -7 5 -4 10 3 6 8 10 11 10 2 0 4 -4 4 -10z m198 -7 c-10 -2
-26 -2 -35 0 -10 3 -2 5 17 5 19 0 27 -2 18 -5z m-53 -39 c38 -3 74 -9 80 -13
18 -15 74 -21 81 -9 5 8 10 7 18 -3 16 -21 116 -20 116 1 0 10 3 11 8 4 8 -14
60 -10 75 5 6 6 21 11 33 11 12 0 24 6 27 13 3 9 9 8 21 -3 15 -14 12 -19 -34
-59 -27 -24 -47 -47 -44 -52 3 -5 0 -9 -5 -9 -6 0 -11 5 -11 12 0 6 -7 3 -15
-8 -9 -12 -14 -14 -15 -6 0 22 -43 9 -56 -17 -11 -22 -12 -22 -23 -5 -6 11
-11 15 -11 9 0 -5 -9 1 -19 14 -18 24 -28 24 -63 -1 -13 -9 -22 -9 -45 2 -33
16 -83 21 -83 9 0 -5 -36 19 -80 52 -44 34 -80 63 -80 66 0 3 12 2 28 -1 15
-3 58 -8 97 -12z m3798 -16 c6 -19 -3 -38 -18 -38 -18 0 -28 17 -21 35 7 18
33 20 39 3z m-173 -33 c0 -19 -20 -29 -32 -17 -15 15 -2 43 17 36 8 -3 15 -12
15 -19z m-1229 -12 c-12 -20 -14 -14 -5 12 4 9 9 14 11 11 3 -2 0 -13 -6 -23z
m-5763 -11 c2 -7 -6 -12 -17 -12 -21 0 -27 11 -14 24 9 9 26 2 31 -12z m306
-8 c12 -12 13 -20 6 -35 -14 -25 -45 -24 -64 3 -28 39 23 67 58 32z m5440 -36
c-7 -39 -35 -110 -42 -104 -4 5 37 136 44 136 2 0 1 -15 -2 -32z m-5703 -5
c13 -16 12 -17 -3 -4 -10 7 -18 15 -18 17 0 8 8 3 21 -13z m7030 -231 c0 -128
4 -232 9 -232 5 0 8 12 7 27 -1 19 3 28 16 31 12 3 17 -3 17 -22 0 -14 5 -28
10 -31 16 -10 12 -51 -6 -66 -14 -11 -14 -14 -1 -24 8 -5 17 -20 21 -32 6 -18
34 -39 42 -31 1 2 7 113 12 248 l9 245 1 -252 2 -253 61 0 c53 0 65 4 85 25
27 30 44 32 44 7 0 -27 9 -32 38 -21 21 8 30 5 54 -18 35 -34 35 -42 -2 -78
-30 -29 -31 -29 -59 -12 -25 14 -45 16 -135 10 l-106 -6 0 40 c0 35 -3 41 -24
45 -14 3 -30 1 -38 -3 -28 -18 -51 36 -29 70 6 9 5 23 -1 37 -12 26 -59 37
-135 33 -37 -3 -48 0 -48 11 0 11 15 16 61 18 60 3 62 4 68 34 10 50 7 118 -5
118 -8 0 -7 6 2 17 10 11 15 57 17 160 2 80 6 143 8 140 2 -2 4 -108 5 -235z
m467 198 c4 -27 -17 -44 -35 -28 -17 13 -17 45 0 51 21 9 32 2 35 -23z m-198
-34 c0 -24 -26 -38 -40 -22 -6 9 -9 20 -5 26 9 15 45 12 45 -4z m-335 -37 c0
-45 -29 -48 -31 -4 -2 36 4 47 19 42 7 -2 12 -19 12 -38z m-4202 -56 c19 -23
28 -69 36 -196 l6 -101 34 -10 c24 -7 36 -7 38 1 2 6 31 8 78 5 62 -4 79 -1
107 16 42 26 67 29 96 14 12 -7 22 -9 22 -5 -1 16 -76 91 -107 107 -18 9 -33
21 -33 27 0 5 15 2 33 -7 30 -15 31 -15 15 1 -9 10 -28 18 -42 18 -14 0 -24 3
-23 7 1 4 -11 20 -27 34 -15 15 -26 30 -23 33 13 12 55 -9 110 -55 32 -27 79
-64 105 -83 l47 -34 -23 33 c-39 54 -4 36 58 -30 53 -56 60 -60 60 -39 l0 24
25 -23 c22 -21 29 -22 45 -12 11 7 26 12 33 12 8 0 32 19 55 42 38 38 44 40
66 30 14 -6 35 -26 47 -45 22 -32 59 -57 87 -57 8 0 27 9 43 21 21 15 33 18
42 11 16 -13 25 -7 60 41 16 21 54 51 85 67 31 17 67 37 79 46 13 9 23 11 27
5 4 -5 -13 -23 -36 -39 -53 -37 -90 -99 -67 -113 7 -5 10 -9 4 -9 -5 0 5 -10
23 -22 27 -17 43 -20 88 -15 30 3 54 2 54 -2 0 -4 27 -5 59 -3 49 4 66 0 96
-18 20 -12 39 -20 42 -17 3 3 -5 22 -17 41 -19 31 -21 44 -15 103 11 108 34
183 62 196 31 14 37 5 19 -31 -24 -46 -30 -124 -15 -212 l13 -80 40 -7 c23 -4
46 -6 51 -4 6 2 40 3 76 2 62 -2 68 0 100 30 34 33 59 45 59 29 0 -5 -14 -18
-31 -31 -18 -12 -27 -25 -22 -30 5 -5 124 -14 264 -20 592 -25 545 -22 572
-47 44 -42 48 -88 21 -235 -13 -73 -24 -133 -24 -135 0 -2 -4 -1 -10 3 -5 3
-6 14 -1 28 14 33 41 190 41 232 0 29 -8 45 -36 73 l-35 35 -612 -6 c-508 -5
-884 -16 -1017 -30 -56 -6 757 -25 1235 -29 136 -1 201 -4 160 -8 -62 -5 -66
-6 -35 -13 19 -4 66 -11 103 -15 37 -4 67 -11 67 -16 0 -16 -285 -18 -620 -5
-344 14 -1858 15 -2544 3 l-369 -7 5 21 c6 22 -7 31 -45 33 -20 1 -20 2 3 9
14 4 289 8 611 9 641 1 1064 11 944 22 -38 4 -413 13 -831 20 l-761 12 -38
-23 c-21 -13 -43 -38 -51 -56 -16 -37 -25 16 111 -639 31 -148 67 -324 80
-390 50 -251 92 -427 127 -533 11 -35 18 -65 16 -67 -12 -12 -48 30 -53 63 -4
20 -12 55 -20 77 -14 43 -23 86 -31 150 -3 22 -16 83 -29 135 -13 52 -31 136
-40 185 -9 50 -20 108 -25 130 -15 65 -126 629 -151 762 -24 134 -21 159 28
205 23 22 33 23 221 29 328 11 552 34 567 60 3 4 -2 23 -11 40 -15 31 -15 32
2 24 11 -4 26 -8 36 -9 9 -1 22 -7 30 -13 46 -36 220 -52 238 -23 4 6 13 10
20 8 24 -5 34 78 21 168 -18 132 -14 156 22 117z m4377 2 c0 -8 -4 -15 -9 -15
-13 0 -22 16 -14 24 11 11 23 6 23 -9z m-7206 -120 c13 -19 14 -30 6 -45 -12
-23 -28 -25 -52 -6 -31 23 -15 74 23 76 4 0 14 -11 23 -25z m7035 -9 c9 -11
10 -20 1 -35 -12 -23 -12 -23 -34 -15 -16 6 -22 45 -9 57 11 11 30 8 42 -7z
m502 -66 c29 0 34 7 31 55 -1 18 0 18 10 -3 19 -38 -2 -67 -51 -69 l-41 -2 0
38 c0 50 14 63 18 17 3 -32 6 -36 33 -36z m-3601 46 c0 -2 -8 -10 -17 -17 -16
-13 -17 -12 -4 4 13 16 21 21 21 13z m-3857 -58 c3 -18 8 -43 12 -55 5 -16 2
-23 -14 -28 -30 -9 -41 1 -41 38 0 74 33 108 43 45z m5078 -48 c-13 -11 -28
-20 -35 -20 -6 1 0 10 13 20 13 11 28 20 35 20 6 -1 0 -10 -13 -20z m2459 0
c0 -5 -4 -10 -10 -10 -5 0 -10 5 -10 10 0 6 5 10 10 10 6 0 10 -4 10 -10z
m-2953 -22 c-3 -8 -6 -5 -6 6 -1 11 2 17 5 13 3 -3 4 -12 1 -19z m2533 -9 c0
-17 -4 -28 -10 -24 -5 3 -10 17 -10 31 0 13 5 24 10 24 6 0 10 -14 10 -31z
m380 11 c-8 -5 -24 -9 -35 -9 l-20 0 20 9 c11 5 27 9 35 9 13 1 13 0 0 -9z
m-7672 -68 c-2 -11 -13 -17 -32 -17 -35 0 -43 16 -21 39 20 20 58 4 53 -22z
m7442 -6 c0 -20 -19 -31 -32 -18 -6 6 -7 15 -4 21 10 16 36 13 36 -3z m-1120
-1 c0 -2 -9 -9 -20 -15 -12 -6 -20 -7 -20 -1 0 5 8 12 18 14 9 3 18 5 20 6 1
0 2 -1 2 -4z m1760 -41 c0 -21 -21 -27 -38 -11 -13 13 -13 19 -2 32 10 12 16
13 26 4 8 -6 14 -17 14 -25z m-7970 -29 c0 -8 -9 -15 -20 -15 -20 0 -26 11
-13 23 12 13 33 7 33 -8z m-222 -117 c29 -29 4 -76 -33 -62 -26 10 -13 74 15
74 3 0 11 -5 18 -12z m7706 -79 c-3 -5 -10 -7 -15 -3 -5 3 -7 10 -3 15 3 5 10
7 15 3 5 -3 7 -10 3 -15z m-3771 4 c9 -9 -12 -33 -29 -33 -8 0 -14 9 -14 20 0
19 28 28 43 13z m88 -26 c-13 -13 -26 -3 -16 12 3 6 11 8 17 5 6 -4 6 -10 -1
-17z m-4121 -37 c0 -5 -5 -10 -11 -10 -5 0 -7 5 -4 10 3 6 8 10 11 10 2 0 4
-4 4 -10z m3926 -7 c9 -13 9 -22 2 -30 -19 -23 -38 -15 -38 17 0 33 16 39 36
13z m-3771 -53 c0 -19 -35 -26 -46 -9 -4 7 -5 17 -2 22 8 14 48 3 48 -13z
m880 1 c26 -7 22 -8 -30 -15 -304 -35 -391 -69 -560 -216 -91 -79 -123 -123
-162 -224 l-24 -61 6 45 c13 99 78 199 180 279 144 112 275 181 370 194 49 7
188 5 220 -2z m6890 -12 c0 -8 -10 -15 -22 -17 -25 -4 -33 22 -10 31 18 8 32
2 32 -14z m-4755 1 c0 -5 -5 -10 -11 -10 -5 0 -7 5 -4 10 3 6 8 10 11 10 2 0
4 -4 4 -10z m2550 -47 c-11 -17 -11 -17 -6 0 3 10 7 26 7 35 1 15 2 15 6 0 2
-10 -1 -25 -7 -35z m1885 19 c-5 -25 1 -35 42 -75 51 -49 62 -54 81 -35 9 9
13 8 17 -5 9 -21 -12 -58 -28 -50 -27 13 -169 172 -162 182 3 6 18 11 31 11
23 0 25 -3 19 -28z m-2245 4 c0 -3 -4 -8 -10 -11 -5 -3 -10 -1 -10 4 0 6 5 11
10 11 6 0 10 -2 10 -4z m426 -113 c-63 -315 -60 -302 -72 -291 -3 4 2 34 10
68 9 34 16 72 16 85 0 13 4 34 9 47 5 13 14 55 21 93 14 84 19 100 27 92 3 -4
-2 -46 -11 -94z m-5746 57 c0 -5 -4 -10 -10 -10 -5 0 -10 5 -10 10 0 6 5 10
10 10 6 0 10 -4 10 -10z m3380 -5 c0 -8 -4 -15 -9 -15 -13 0 -22 16 -14 24 11
11 23 6 23 -9z m-1240 -45 c0 -20 -2 -22 -10 -10 -5 8 -10 26 -10 40 0 20 2
22 10 10 5 -8 10 -26 10 -40z m5655 10 c-5 -8 -11 -8 -17 -2 -6 6 -7 16 -3 22
5 8 11 8 17 2 6 -6 7 -16 3 -22z m-2475 -10 c0 -11 -4 -20 -9 -20 -11 0 -22
26 -14 34 12 12 23 5 23 -14z m-5650 -25 c0 -8 -7 -15 -15 -15 -16 0 -20 12
-8 23 11 12 23 8 23 -8z m162 0 c0 -5 -5 -11 -11 -13 -6 -2 -11 4 -11 13 0 9
5 15 11 13 6 -2 11 -8 11 -13z m48 -5 c0 -21 -15 -27 -25 -10 -7 12 2 30 16
30 5 0 9 -9 9 -20z m4000 -10 c0 -5 -4 -10 -10 -10 -5 0 -10 5 -10 10 0 6 5
10 10 10 6 0 10 -4 10 -10z m1088 3 c-10 -2 -28 -2 -40 0 -13 2 -5 4 17 4 22
1 32 -1 23 -4z m-3973 -44 c17 0 -19 -11 -80 -24 -142 -31 -194 -49 -340 -123
-123 -63 -245 -159 -286 -227 -11 -16 -19 -25 -19 -18 0 32 168 206 230 238
19 10 48 29 64 42 33 27 134 76 216 104 41 14 72 18 120 14 36 -3 79 -5 95 -6z
m5911 0 c72 -13 187 -65 234 -105 19 -17 74 -58 122 -92 144 -104 196 -179
218 -322 11 -66 10 -85 -6 -154 l-19 -79 0 129 0 129 -42 78 c-58 105 -94 148
-182 209 -130 90 -232 137 -340 154 -53 8 -127 21 -166 28 l-70 13 50 7 c28 4
55 9 60 11 21 7 84 5 141 -6z m-3968 -16 c-15 -2 -42 -2 -60 0 -18 2 -6 4 27
4 33 0 48 -2 33 -4z m402 -6 c0 -9 -12 -11 -41 -9 -28 3 -37 7 -28 13 21 13
69 11 69 -4z m1505 -32 c0 -22 -31 -33 -47 -17 -17 17 -1 44 24 40 15 -2 23
-10 23 -23z m-2255 1 c0 -11 -19 -15 -25 -6 -3 5 1 10 9 10 9 0 16 -2 16 -4z
m-2632 -69 c4 -20 -25 -34 -40 -19 -15 15 -1 44 19 40 10 -2 19 -11 21 -21z
m7469 -42 c18 -35 9 -26 -32 30 -24 33 -25 36 -6 20 13 -11 30 -33 38 -50z
m-6133 26 c3 -5 -38 -12 -92 -16 -62 -4 -129 -17 -188 -36 -99 -32 -184 -47
-184 -33 0 16 92 67 144 80 59 14 312 18 320 5z m5391 -2 c44 -6 89 -12 100
-15 27 -5 149 -83 142 -91 -8 -7 -133 26 -177 47 -49 24 -184 50 -266 51 -48
0 -63 3 -49 9 29 12 157 12 250 -1z m1036 -11 c35 -43 20 -63 -22 -30 -14 12
-20 25 -16 35 8 22 15 21 38 -5z m-6306 -17 c-3 -5 -41 -21 -85 -36 -103 -34
-234 -113 -286 -172 -24 -26 -46 -43 -52 -39 -20 12 -6 64 26 101 70 79 96 94
194 116 51 12 107 25 123 29 42 11 87 12 80 1z m2760 -1 c3 -5 -1 -10 -10 -10
-9 0 -13 5 -10 10 3 6 8 10 10 10 2 0 7 -4 10 -10z m3602 -27 c-3 -10 -5 -4
-5 12 0 17 2 24 5 18 2 -7 2 -21 0 -30z m-6577 17 c-8 -5 -26 -9 -40 -9 l-25
1 25 8 c14 4 32 8 40 9 13 1 13 0 0 -9z m5475 -23 c19 -11 19 -12 -5 -15 -33
-5 -102 16 -94 29 7 12 68 3 99 -14z m-147 -12 c77 -44 183 -128 198 -158 15
-27 14 -28 -5 -18 -11 6 -48 36 -83 66 -35 31 -85 66 -113 79 -27 13 -66 30
-85 39 l-35 16 40 0 c25 1 56 -8 83 -24z m-228 -5 c91 -24 167 -58 175 -78 9
-24 1 -24 -56 2 -95 41 -108 41 -52 0 29 -22 57 -50 63 -63 10 -21 9 -23 -12
-18 -13 2 -40 12 -61 21 l-39 17 16 -23 c41 -58 6 -63 -56 -8 -48 42 -98 67
-98 49 0 -5 -30 6 -67 25 -63 33 -168 64 -179 53 -3 -2 28 -20 68 -39 97 -47
172 -115 186 -169 l11 -42 -37 35 c-20 19 -55 47 -77 63 l-40 28 25 -28 c25
-28 25 -28 3 -22 -16 3 -23 1 -23 -10 0 -8 -3 -13 -7 -11 -5 2 -55 27 -111 56
-69 35 -121 55 -155 59 -63 7 -58 -3 10 -20 57 -15 123 -63 123 -90 0 -16 -5
-15 -37 11 -21 16 -63 43 -93 59 -30 17 -55 36 -55 44 0 22 76 68 135 81 53
12 273 14 350 4 34 -5 34 -5 7 5 -15 6 -25 15 -21 20 7 12 18 11 104 -11z
m-4750 -2 c0 -8 31 -9 114 -5 99 6 123 4 182 -14 38 -11 73 -25 78 -30 6 -5
19 -9 30 -9 19 -1 56 -21 56 -31 0 -2 -20 -3 -44 -1 -46 4 -82 -10 -188 -75
-31 -19 -63 -33 -70 -30 -7 2 -39 -9 -71 -25 -33 -16 -56 -24 -52 -19 10 18
-7 12 -30 -9 l-21 -20 2 42 c2 36 9 48 46 80 52 46 96 70 161 88 52 14 71 30
35 30 -48 -1 -115 -22 -171 -55 -32 -19 -68 -35 -80 -35 -12 0 -38 -19 -63
-45 -45 -49 -55 -53 -74 -30 -7 9 -19 14 -26 11 -8 -3 -11 0 -7 10 4 12 0 14
-23 8 -16 -4 -42 -13 -57 -21 -53 -26 -52 -7 2 50 56 59 55 67 -6 42 -19 -8
-37 -15 -40 -15 -9 0 38 54 60 69 52 37 257 68 257 39z m1725 2 c-3 -5 -12
-10 -18 -10 -7 0 -6 4 3 10 19 12 23 12 15 0z m-3267 -22 c-3 -25 -34 -36 -50
-20 -17 17 -1 42 27 42 22 0 26 -4 23 -22z m5663 -40 c-6 -17 -20 -85 -32
-152 -23 -134 -45 -235 -53 -244 -10 -9 -7 11 25 170 38 191 61 286 67 270 2
-7 -1 -27 -7 -44z m2134 8 c9 4 15 0 15 -9 0 -18 -38 -33 -51 -20 -4 4 -6 19
-2 32 5 19 7 21 15 8 5 -9 15 -14 23 -11z m-5145 -61 c0 -8 -9 -15 -20 -15
-13 0 -18 5 -14 15 4 8 12 15 20 15 8 0 14 -7 14 -15z m-676 -10 c-49 -22 -88
-30 -80 -17 8 13 60 30 91 30 14 0 11 -3 -11 -13z m2886 -11 c0 -8 -5 -12 -10
-9 -6 4 -8 11 -5 16 9 14 15 11 15 -7z m260 -49 c4 -33 1 -45 -11 -45 -6 0 -8
11 -4 28 4 21 0 36 -16 58 l-22 29 26 -25 c14 -14 26 -34 27 -45z m-5332 22
c2 -12 -3 -17 -17 -17 -12 0 -21 6 -21 13 0 31 32 34 38 4z m3692 -43 c0 -5
-10 -22 -23 -37 -21 -26 -23 -27 -44 -12 -13 9 -28 25 -34 36 -8 17 -5 25 21
49 l32 30 24 -29 c13 -16 24 -33 24 -37z m1694 37 c-2 -3 -12 3 -22 13 -16 17
-16 18 5 5 12 -7 20 -15 17 -18z m-3156 -43 l3 -56 -38 9 c-64 15 -81 11 -123
-29 -50 -49 -51 -38 -2 25 56 70 110 115 135 111 19 -3 22 -10 25 -60z m3759
24 c41 -26 107 -122 84 -122 -6 0 -34 21 -62 46 -29 25 -65 51 -81 56 -20 7
-28 16 -28 35 0 21 3 23 23 18 12 -4 41 -19 64 -33z m-5534 -49 c-16 -51 -21
-164 -10 -248 l6 -50 -15 50 c-19 63 -13 205 10 258 23 51 27 46 9 -10z m-303
-22 c0 -27 -19 -36 -37 -18 -18 18 -9 37 18 37 12 0 19 -7 19 -19z m2780 -11
c0 -5 -7 -10 -15 -10 -8 0 -15 5 -15 10 0 6 7 10 15 10 8 0 15 -4 15 -10z
m-258 -22 c-9 -9 -15 -9 -24 0 -9 9 -7 12 12 12 19 0 21 -3 12 -12z m128 2 c0
-5 -9 -10 -20 -10 -11 0 -20 5 -20 10 0 6 9 10 20 10 11 0 20 -4 20 -10z m766
-36 c-6 -16 -46 -19 -46 -3 0 6 9 13 20 16 11 3 21 13 21 22 1 13 2 13 6 -2 3
-10 2 -25 -1 -33z m-751 6 c27 -7 26 -8 -15 -9 -26 0 -51 -6 -58 -13 -9 -9
-12 -9 -12 0 0 7 -7 12 -16 12 -8 0 -12 5 -9 10 7 11 65 11 110 0z m5239 -9
c8 -12 -21 -34 -34 -26 -17 11 -11 35 9 35 11 0 22 -4 25 -9z m166 -6 c0 -8
-4 -15 -10 -15 -5 0 -10 7 -10 15 0 8 5 15 10 15 6 0 10 -7 10 -15z m-8480
-10 c0 -8 -7 -15 -15 -15 -8 0 -15 7 -15 15 0 8 7 15 15 15 8 0 15 -7 15 -15z
m4700 -31 c0 -27 -4 -43 -10 -39 -5 3 -10 24 -10 46 0 21 5 39 10 39 6 0 10
-21 10 -46z m-4402 -51 c-2 -10 -10 -18 -18 -18 -8 0 -16 8 -18 18 -2 12 3 17
18 17 15 0 20 -5 18 -17z m2957 7 c3 -5 1 -10 -4 -10 -6 0 -11 5 -11 10 0 6 2
10 4 10 3 0 8 -4 11 -10z m1296 -37 c31 -51 119 -144 130 -137 5 3 10 31 10
62 2 55 2 55 10 -22 5 -43 10 -81 13 -83 13 -13 26 13 27 55 2 44 2 43 9 -16
5 -45 13 -70 29 -85 11 -12 21 -16 21 -9 0 7 7 12 15 12 18 0 20 -20 3 -21 -7
-1 -2 -4 12 -8 17 -5 29 -2 38 8 12 14 13 14 8 -1 -7 -22 13 -28 95 -28 65 0
69 -1 75 -25 6 -23 11 -25 59 -25 28 0 114 -14 191 -30 76 -17 202 -42 279
-55 143 -26 195 -41 195 -56 0 -5 -134 -10 -297 -10 -820 -3 -1051 -3 -1832 0
-801 3 -844 4 -862 22 -17 17 -43 92 -37 109 2 4 30 -2 63 -13 51 -18 85 -21
220 -22 188 0 254 4 315 20 25 7 74 18 110 24 35 7 76 18 90 25 14 7 54 19 89
25 35 7 72 18 82 24 13 8 24 8 45 -2 20 -9 29 -9 34 0 6 8 9 8 14 0 5 -8 13
-8 26 -1 10 5 28 10 39 10 12 0 23 10 29 28 9 23 11 24 11 6 1 -21 6 -22 112
-23 61 0 115 -3 119 -6 5 -3 13 23 18 57 l9 63 2 -60 c2 -44 5 -54 11 -39 9
23 33 34 124 60 32 9 74 25 93 36 30 18 36 19 51 6 18 -16 151 -62 158 -56 2
2 -28 35 -66 73 -46 46 -70 77 -70 92 0 13 5 23 10 23 6 0 10 -9 10 -21 0 -24
122 -157 128 -139 3 7 9 7 20 -2 13 -12 14 -10 3 9 -9 19 -85 123 -123 171 -7
8 -7 12 0 12 6 0 21 -17 33 -37z m-1593 6 c-2 -6 -8 -10 -13 -10 -5 0 -11 4
-13 10 -2 6 4 11 13 11 9 0 15 -5 13 -11z m147 -19 c-3 -5 -15 -10 -26 -10
-10 0 -19 5 -19 10 0 6 12 10 26 10 14 0 23 -4 19 -10z m775 -80 c-1 -3 -7 4
-15 14 -8 11 -15 31 -15 45 1 22 3 19 15 -14 8 -22 15 -42 15 -45z m35 70 c-3
-5 -13 -10 -21 -10 -8 0 -14 5 -14 10 0 6 9 10 21 10 11 0 17 -4 14 -10z m415
-10 c0 -5 -4 -10 -10 -10 -5 0 -10 5 -10 10 0 6 5 10 10 10 6 0 10 -4 10 -10z
m4198 -9 c20 -12 10 -45 -14 -49 -29 -4 -51 23 -34 43 14 17 29 19 48 6z
m-2497 -38 c-10 -17 -10 -16 -11 3 0 23 13 41 18 25 2 -6 -1 -18 -7 -28z
m-2553 15 c-6 -18 -28 -21 -28 -4 0 9 7 16 16 16 9 0 14 -5 12 -12z m32 2 c0
-5 -5 -10 -11 -10 -5 0 -7 5 -4 10 3 6 8 10 11 10 2 0 4 -4 4 -10z m1051 -12
c11 -21 11 -22 -4 -9 -10 7 -17 17 -17 22 0 15 9 10 21 -13z m3669 -8 c0 -5
-4 -10 -10 -10 -5 0 -10 5 -10 10 0 6 5 10 10 10 6 0 10 -4 10 -10z m-8010
-50 c0 -38 -32 -58 -66 -40 -43 24 -41 62 4 78 38 13 62 -2 62 -38z m7780 31
c0 -5 -22 -42 -48 -82 -44 -68 -154 -170 -167 -157 -3 3 29 36 71 73 44 40 88
91 106 122 29 52 38 62 38 44z m-4990 -10 c0 -6 -4 -13 -10 -16 -5 -3 -10 1
-10 9 0 9 5 16 10 16 6 0 10 -4 10 -9z m3007 -13 c-3 -8 -6 -5 -6 6 -1 11 2
17 5 13 3 -3 4 -12 1 -19z m-2904 -19 c4 -15 1 -19 -11 -17 -9 2 -18 13 -20
26 -4 28 24 20 31 -9z m940 0 c-6 -6 -21 -8 -34 -4 l-22 7 24 14 c27 14 51 2
32 -17z m24 -6 c-3 -10 -5 -4 -5 12 0 17 2 24 5 18 2 -7 2 -21 0 -30z m-3353
-72 c39 -53 42 -60 17 -36 -36 33 -91 113 -90 129 0 6 6 2 12 -8 7 -11 34 -49
61 -85z m3486 84 c0 -8 -7 -15 -15 -15 -16 0 -20 12 -8 23 11 12 23 8 23 -8z
m-4214 -32 c-10 -10 -19 5 -10 18 6 11 8 11 12 0 2 -7 1 -15 -2 -18z m3268 18
c3 -5 -1 -14 -8 -20 -10 -8 -16 -9 -21 -1 -3 5 -25 11 -48 12 l-42 1 45 7 c68
11 68 11 74 1z m-2901 -16 c1 -5 -6 -11 -15 -13 -11 -2 -18 3 -18 13 0 17 30
18 33 0z m135 -21 c4 -27 -26 -40 -46 -20 -13 13 -13 18 -2 31 18 21 44 15 48
-11z m5507 -21 c-7 -54 -61 -263 -70 -271 -15 -15 -11 16 20 138 19 74 37 145
41 158 11 38 17 24 9 -25z m-2295 23 c0 -3 -4 -8 -10 -11 -5 -3 -10 -1 -10 4
0 6 5 11 10 11 6 0 10 -2 10 -4z m407 -2 c-3 -3 -12 -4 -19 -1 -8 3 -5 6 6 6
11 1 17 -2 13 -5z m-764 -19 c1 -5 -6 -11 -15 -13 -11 -2 -18 3 -18 13 0 17
30 18 33 0z m1527 0 c0 -8 -4 -15 -10 -15 -5 0 -10 7 -10 15 0 8 5 15 10 15 6
0 10 -7 10 -15z m3450 0 c0 -8 -7 -15 -15 -15 -8 0 -15 7 -15 15 0 8 7 15 15
15 8 0 15 -7 15 -15z m-4600 -15 c0 -5 -4 -10 -9 -10 -6 0 -13 5 -16 10 -3 6
1 10 9 10 9 0 16 -4 16 -10z m4430 -9 c0 -22 -21 -33 -40 -21 -18 11 -4 40 20
40 13 0 20 -7 20 -19z m-3230 -1 c0 -5 -4 -10 -10 -10 -5 0 -10 5 -10 10 0 6
5 10 10 10 6 0 10 -4 10 -10z m95 1 c3 -5 1 -12 -5 -16 -5 -3 -10 1 -10 9 0
18 6 21 15 7z m65 -1 c0 -5 -5 -10 -11 -10 -5 0 -7 5 -4 10 3 6 8 10 11 10 2
0 4 -4 4 -10z m-110 -10 c0 -5 -5 -10 -11 -10 -5 0 -7 5 -4 10 3 6 8 10 11 10
2 0 4 -4 4 -10z m-4478 -52 c-9 -9 -15 -9 -24 0 -10 10 -10 15 2 22 9 6 19 5
24 0 7 -7 6 -14 -2 -22z m2393 22 c3 -6 -1 -7 -9 -4 -18 7 -21 14 -7 14 6 0
13 -4 16 -10z m2363 -12 c-6 -18 -28 -21 -28 -4 0 9 7 16 16 16 9 0 14 -5 12
-12z m-2303 -18 c3 -5 2 -10 -4 -10 -5 0 -13 5 -16 10 -3 6 -2 10 4 10 5 0 13
-4 16 -10z m565 0 c0 -5 -2 -10 -4 -10 -3 0 -8 5 -11 10 -3 6 -1 10 4 10 6 0
11 -4 11 -10z m-3080 -10 c0 -5 -4 -10 -10 -10 -5 0 -10 5 -10 10 0 6 5 10 10
10 6 0 10 -4 10 -10z m7578 -12 c-6 -18 -28 -21 -28 -4 0 9 7 16 16 16 9 0 14
-5 12 -12z m532 -3 c0 -8 -4 -15 -9 -15 -13 0 -22 16 -14 24 11 11 23 6 23 -9z
m-7885 -36 c4 -6 -1 -16 -11 -24 -16 -11 -20 -11 -27 1 -15 27 22 49 38 23z
m8145 -7 c0 -6 -48 -34 -103 -60 -4 -2 -6 2 -5 10 4 17 -119 13 -217 -9 -114
-25 -151 -30 -170 -23 -35 12 102 39 375 74 58 7 108 14 113 15 4 0 7 -3 7 -7z
m-8792 -23 c114 -20 172 -38 82 -25 -25 3 -83 11 -130 17 -47 6 -92 15 -100
20 -25 14 21 11 148 -12z m8195 -76 c-7 -2 -19 -2 -25 0 -7 3 -2 5 12 5 14 0
19 -2 13 -5z m-134 -13 c-21 -12 -177 -30 -249 -29 -71 2 -52 6 95 23 154 18
175 18 154 6z m-356 -37 c-7 -2 -19 -2 -25 0 -7 3 -2 5 12 5 14 0 19 -2 13 -5z
m-2896 -16 c3 -4 -92 -7 -213 -7 -120 0 -370 0 -554 0 -721 -1 -791 0 -786 9
7 11 1542 8 1553 -2z m2756 6 c-7 -2 -19 -2 -25 0 -7 3 -2 5 12 5 14 0 19 -2
13 -5z m-4843 -53 c15 -16 25 -30 20 -30 -12 0 -60 40 -60 51 0 16 11 10 40
-21z m1238 -37 c-10 -2 -26 -2 -35 0 -10 3 -2 5 17 5 19 0 27 -2 18 -5z m200
0 c-21 -2 -55 -2 -75 0 -21 2 -4 4 37 4 41 0 58 -2 38 -4z m95 0 c-7 -2 -19
-2 -25 0 -7 3 -2 5 12 5 14 0 19 -2 13 -5z m160 0 c-7 -2 -19 -2 -25 0 -7 3
-2 5 12 5 14 0 19 -2 13 -5z m185 0 c-10 -2 -26 -2 -35 0 -10 3 -2 5 17 5 19
0 27 -2 18 -5z m149 1 c-3 -3 -12 -4 -19 -1 -8 3 -5 6 6 6 11 1 17 -2 13 -5z
m181 -1 c-10 -2 -28 -2 -40 0 -13 2 -5 4 17 4 22 1 32 -1 23 -4z m640 0 c-10
-2 -28 -2 -40 0 -13 2 -5 4 17 4 22 1 32 -1 23 -4z m2670 -80 c-23 -32 -59
-77 -80 -100 -21 -24 -38 -51 -38 -60 0 -10 -9 -56 -19 -103 -55 -243 -78
-388 -64 -401 5 -3 34 -17 66 -30 33 -13 74 -37 93 -54 29 -25 36 -42 49 -107
9 -43 23 -97 31 -120 9 -24 22 -74 30 -113 16 -83 49 -234 63 -290 25 -99 51
-224 57 -274 6 -46 5 -53 -8 -48 -74 28 -285 122 -295 131 -6 6 -23 67 -36
136 -14 69 -34 167 -46 219 -11 52 -25 129 -32 170 -19 128 -33 171 -60 185
-13 7 -47 27 -75 44 -37 23 -63 32 -94 32 -39 0 -42 -2 -37 -22 3 -13 13 -81
22 -153 9 -71 23 -161 31 -200 21 -101 30 -240 15 -249 -15 -10 -197 14 -238
31 -24 10 -33 21 -38 45 -18 108 -25 169 -25 215 0 29 -6 72 -14 95 -8 24 -17
77 -20 118 -4 41 -11 102 -15 135 -5 33 -18 128 -29 211 -22 158 -42 285 -64
393 l-12 64 -61 28 c-59 28 -59 28 -25 29 19 0 104 5 188 10 84 5 159 7 166 4
10 -4 13 -15 9 -38 -3 -18 2 -66 11 -107 9 -41 23 -128 31 -194 21 -158 30
-185 61 -185 13 0 24 2 24 4 0 2 9 39 19 82 11 44 34 149 51 234 17 85 33 162
35 171 4 10 -8 22 -37 36 -43 21 -43 21 -18 30 14 6 81 16 150 23 69 7 150 16
180 20 30 4 74 8 98 9 l43 1 -43 -57z m-7618 22 c107 -9 251 -22 320 -30 69
-8 190 -20 269 -27 108 -9 145 -16 149 -26 10 -27 -99 -685 -121 -732 -21 -44
-119 -84 -359 -145 -122 -32 -226 -62 -229 -67 -3 -5 -14 -67 -23 -136 -10
-70 -29 -191 -42 -269 -13 -78 -24 -144 -24 -147 0 -2 -44 -23 -97 -46 -54
-24 -121 -56 -149 -72 -75 -41 -78 -40 -70 40 4 37 13 96 21 132 8 36 21 110
30 165 23 140 53 296 75 390 10 44 21 105 25 135 3 30 14 98 25 150 10 52 26
147 35 210 9 63 23 150 31 193 l14 78 -60 92 c-33 50 -60 99 -60 109 0 22 -6
22 240 3z m3845 -105 l193 0 12 -72 c6 -40 22 -116 36 -168 49 -192 76 -300
129 -527 30 -127 56 -237 57 -245 2 -10 -24 -13 -129 -13 -72 0 -134 3 -137 6
-3 3 -13 52 -23 110 l-18 104 -147 0 c-80 0 -149 -3 -153 -6 -3 -4 -13 -44
-20 -88 -23 -127 -15 -121 -160 -121 l-125 0 0 40 c0 52 28 186 45 221 8 14
28 80 44 145 17 65 40 153 51 194 11 41 20 83 20 93 0 10 7 28 15 40 8 13 26
72 39 133 31 141 42 168 62 160 9 -3 103 -6 209 -6z m-1418 -16 c7 -18 -34
-653 -63 -972 -8 -89 -13 -92 -155 -92 -105 0 -120 2 -126 18 -6 19 -103 263
-164 411 -21 52 -45 101 -53 110 -15 14 -16 12 -18 -24 -1 -22 -1 -49 -1 -60
0 -11 -5 -85 -13 -165 -8 -80 -14 -173 -14 -206 0 -34 -3 -75 -6 -92 -7 -34
-2 -32 -201 -48 l-83 -6 6 98 c3 55 9 117 15 139 11 45 24 189 39 410 5 83 15
200 21 261 11 99 10 117 -5 154 -9 23 -14 45 -12 48 3 3 74 5 158 6 l153 1 27
-50 c16 -27 38 -81 50 -120 12 -38 40 -115 63 -170 22 -55 50 -126 60 -157 32
-97 29 -112 56 317 5 94 15 175 20 180 21 21 238 29 246 9z m848 -15 c77 -49
77 -48 71 -184 -9 -206 -46 -578 -63 -630 -8 -27 -27 -63 -42 -78 -32 -36
-104 -73 -168 -88 -64 -14 -356 -39 -467 -39 l-88 0 6 88 c10 148 25 468 31
679 l6 201 -35 36 -36 35 43 4 c23 2 188 4 368 5 l325 2 49 -31z m1247 26 l78
-7 0 -77 c0 -42 3 -127 7 -188 l6 -113 115 0 115 0 -8 190 -7 190 125 0 c69 0
128 -4 132 -9 3 -6 10 -133 15 -283 6 -150 16 -349 22 -443 7 -93 13 -204 13
-245 l0 -75 -115 -3 c-82 -2 -120 1 -132 10 -14 11 -17 43 -21 232 -3 171 -7
220 -18 227 -8 5 -61 8 -119 7 l-105 -3 5 -140 c3 -77 5 -176 5 -220 l0 -80
-128 2 c-71 0 -131 4 -135 7 -3 4 -7 93 -8 199 -1 106 -4 244 -8 307 -20 359
-28 455 -37 466 -5 7 -24 18 -42 25 -30 13 -30 14 -8 19 40 9 173 12 253 5z
m3658 -26 c0 -5 -4 -9 -10 -9 -5 0 -10 7 -10 16 0 8 5 12 10 9 6 -3 10 -10 10
-16z m-2431 -7 l43 -7 39 -135 c22 -74 49 -169 60 -210 12 -41 27 -95 34 -120
7 -25 31 -115 54 -200 23 -85 50 -182 61 -215 40 -124 61 -206 54 -217 -8 -12
-253 -3 -266 10 -4 4 -22 63 -39 130 l-32 121 -41 6 c-23 3 -79 7 -126 8 l-85
2 -7 -45 c-5 -25 -13 -76 -18 -115 l-11 -70 -140 9 -141 9 7 56 c4 31 20 126
37 211 16 85 38 207 48 270 10 63 25 142 34 175 9 33 25 116 36 184 l21 125
-23 19 c-23 18 -20 18 167 12 105 -4 210 -10 234 -13z m-4394 -14 c22 -104 62
-406 81 -613 18 -206 31 -328 44 -415 10 -73 6 -79 -50 -81 -19 0 -72 -4 -118
-7 -46 -4 -88 -4 -94 -1 -9 6 -25 142 -27 237 -1 16 -7 22 -25 22 -39 0 -249
-39 -256 -47 -4 -4 -24 -66 -45 -137 -30 -98 -44 -130 -60 -137 -31 -13 -257
-49 -267 -43 -6 4 -7 16 -3 28 3 11 13 46 21 76 8 30 19 64 24 75 11 23 121
340 149 430 11 33 28 85 39 115 11 30 41 125 67 210 26 85 53 175 61 199 12
37 12 46 -1 64 -8 12 -15 25 -15 29 0 10 65 14 277 16 192 2 193 2 198 -20z
m5135 2 c171 0 154 14 166 -134 l7 -89 -155 5 c-149 4 -156 4 -169 -16 -7 -12
-12 -25 -10 -31 6 -22 42 -300 56 -445 9 -85 20 -165 25 -177 17 -40 82 -60
291 -88 26 -3 54 -11 63 -18 18 -13 36 -103 36 -179 0 -53 0 -54 -77 -39 -26
5 -91 15 -143 21 -157 19 -262 41 -311 66 -53 26 -105 68 -119 95 -9 15 -32
184 -55 394 -11 101 -35 432 -35 483 0 117 72 167 224 156 32 -2 125 -4 206
-4z m1270 -29 c-12 -17 -23 -31 -25 -31 -8 0 8 35 23 53 24 28 26 11 2 -22z
m-8085 -116 c4 -45 -11 -110 -30 -138 -12 -17 -13 -15 -13 20 -1 59 19 164 30
161 6 -2 12 -22 13 -43z m8079 -90 c108 -353 240 -924 221 -955 -12 -19 -24
-10 -35 28 -6 20 -15 46 -20 57 -5 11 -27 97 -49 190 -23 94 -50 202 -60 240
-11 39 -29 117 -41 174 -12 57 -25 112 -31 122 -9 18 -15 58 -26 179 -4 51 -4
54 11 35 8 -11 22 -42 30 -70z m126 11 c0 -8 -4 -17 -9 -21 -12 -7 -24 12 -16
25 9 15 25 12 25 -4z m-8244 -128 c-4 -24 -13 -65 -21 -93 -7 -27 -23 -106
-35 -175 -32 -188 -118 -520 -119 -464 -4 112 107 637 156 742 21 44 27 40 19
-10z m-458 -406 c2 -7 -3 -12 -12 -12 -9 0 -16 7 -16 16 0 17 22 14 28 -4z
m4546 -468 c55 -1 58 -22 4 -26 l-43 -3 -3 -65 c-2 -35 0 -75 3 -88 5 -21 10
-23 40 -18 22 4 35 3 35 -4 0 -5 -16 -10 -35 -10 -33 0 -35 -2 -35 -35 0 -23
6 -38 15 -42 31 -11 45 -59 45 -155 0 -75 -4 -99 -20 -126 -30 -49 -26 -62 17
-59 32 2 38 -1 41 -20 4 -26 -28 -39 -56 -24 -18 9 -20 6 -25 -37 -4 -26 -7
-130 -7 -232 -1 -102 -4 -277 -8 -390 -8 -270 -19 -195 -21 145 -1 210 -13
527 -22 605 -4 35 -17 -104 -19 -205 -3 -145 -8 -120 -19 110 -7 121 -16 205
-25 231 -15 40 -13 63 9 117 4 10 21 25 37 33 25 13 29 20 27 52 -1 20 1 44 5
53 4 9 6 49 4 90 l-3 74 -40 5 c-25 3 -35 8 -27 13 6 5 12 17 12 28 0 26 16
24 23 -2 11 -41 32 -14 36 47 l5 59 5 -60 6 -60 39 -1z m-4280 49 c-1 -16 -2
-38 -3 -50 0 -13 -6 -23 -12 -23 -8 0 -9 13 -5 42 10 59 23 80 20 31z m4007
-188 c-3 -178 9 -385 22 -385 17 0 47 -32 47 -50 0 -35 -26 -44 -67 -23 -43
20 -53 46 -28 73 14 16 16 48 13 269 -2 138 1 250 6 248 4 -1 8 -61 7 -132z
m-211 83 c0 -17 -3 -19 -12 -10 -7 7 -30 12 -52 13 -36 1 -38 2 -16 9 14 4 37
8 53 9 21 1 27 -3 27 -21z m97 -175 c-2 -38 -3 -7 -3 67 0 74 1 105 3 68 2
-38 2 -98 0 -135z m-546 154 c24 1 36 -1 26 -3 -10 -3 -30 -12 -44 -19 -18
-10 -32 -11 -45 -4 -17 9 -18 3 -18 -95 0 -101 -1 -105 -22 -108 -20 -3 -23
-10 -26 -51 -3 -38 0 -48 15 -54 63 -22 142 -123 144 -184 0 -18 27 -47 106
-114 88 -75 153 -124 184 -137 3 -2 2 -28 -1 -58 -6 -43 -7 -47 -9 -19 -1 31
-10 45 -62 93 -34 32 -73 65 -88 74 -36 23 -101 72 -133 101 -23 21 -28 33
-28 74 0 46 -4 53 -49 98 -27 27 -54 49 -60 49 -13 0 -92 55 -170 118 -31 24
-57 45 -58 46 -1 1 2 15 6 32 l9 29 1 -28 c1 -19 12 -40 34 -59 41 -39 129
-99 136 -93 3 3 4 26 2 50 -2 42 0 45 24 45 l25 0 0 95 0 95 -42 0 c-32 0 -39
3 -28 10 8 5 34 10 56 10 34 0 43 4 48 23 7 21 7 21 15 2 6 -16 16 -19 52 -18z
m1986 -25 c-29 -5 -69 7 -61 19 4 8 9 7 14 -1 12 -19 40 -4 40 22 1 20 2 20
14 -7 12 -27 11 -30 -7 -33z m-1808 -69 c1 -64 3 -119 6 -121 2 -2 11 -5 22
-6 16 -3 19 -17 25 -119 4 -64 11 -125 17 -136 11 -19 191 -173 291 -248 l55
-42 -3 -170 c-2 -100 -7 -171 -12 -171 -6 0 -10 68 -10 169 l0 169 -32 21
c-103 65 -291 220 -304 250 -4 9 -12 67 -18 130 l-11 114 -64 23 c-35 13 -65
25 -68 28 -2 2 2 17 10 33 8 15 13 42 10 58 -5 33 11 85 26 85 6 0 12 -40 13
-92 4 -130 22 -119 26 15 l3 107 -48 2 -48 1 50 7 c28 4 53 8 56 8 4 1 8 -51
8 -115z m49 65 c-1 -48 -2 -49 -5 -13 -3 22 -9 45 -15 52 -8 10 -6 13 6 13 13
0 16 -10 14 -52z m1339 46 c-3 -3 -12 -4 -19 -1 -8 3 -5 6 6 6 11 1 17 -2 13
-5z m108 -14 c14 -7 9 -8 -17 -4 l-38 6 -2 -103 -2 -104 -3 94 c-2 52 -9 101
-15 108 -8 10 -3 13 23 12 19 0 43 -4 54 -9z m-2095 -87 c0 -49 3 -112 6 -140
6 -50 10 -55 58 -87 72 -48 141 -124 154 -169 9 -33 8 -37 -4 -26 -8 6 -14 19
-15 28 0 15 -154 142 -206 169 -19 10 -23 19 -19 35 3 12 6 79 6 150 0 78 4
127 10 127 6 0 10 -36 10 -87z m97 5 c-2 -18 -4 -6 -4 27 0 33 2 48 4 33 2
-15 2 -42 0 -60z m2183 72 c0 -5 -6 -10 -14 -10 -21 0 -25 -21 -25 -111 0 -44
-2 -84 -5 -87 -3 -3 -6 40 -6 95 l0 101 -27 10 c-25 9 -23 11 25 11 28 1 52
-3 52 -9z m440 -173 l2 -177 -103 -53 c-112 -56 -139 -84 -73 -74 l39 7 -40
-19 c-22 -10 -50 -33 -63 -50 -32 -44 -46 -38 -22 10 12 23 19 47 16 55 -7 17
45 52 152 103 l72 35 0 166 c0 144 4 189 16 177 2 -2 4 -83 4 -180z m-620 79
c0 -46 2 -91 5 -98 4 -10 -13 -20 -57 -34 l-63 -20 -5 -119 -5 -120 -181 -90
c-100 -49 -200 -98 -223 -108 -62 -28 -71 -41 -71 -103 0 -80 -18 -66 -22 17
l-3 71 32 13 c18 8 54 29 80 47 l48 32 -18 -27 -18 -28 28 14 c15 8 46 29 68
47 50 40 100 65 145 75 19 4 56 21 82 38 l48 32 0 118 c0 98 2 117 15 117 8 0
33 6 55 12 l40 13 0 92 c0 55 4 93 10 93 6 0 10 -35 10 -84z m-1859 48 l48 7
-4 -73 c-2 -40 -6 -74 -10 -76 -3 -2 -35 11 -70 29 -95 47 -80 77 23 44 36
-12 27 20 -13 44 -21 12 -35 28 -34 38 1 16 2 16 6 -1 4 -16 11 -17 54 -12z
m223 8 c5 -3 1 -9 -8 -14 -11 -6 -22 -6 -31 2 -29 24 1 33 39 12z m409 -461
c-2 -2 -6 -1 -10 3 -11 11 -17 443 -6 464 4 10 10 -84 13 -223 3 -132 4 -242
3 -244z m1757 332 l0 -122 -109 -78 c-92 -65 -111 -83 -116 -110 -3 -18 -9
-35 -14 -37 -4 -3 -3 17 3 44 10 43 18 54 56 78 25 16 59 44 75 62 17 18 43
38 60 45 l29 13 -2 129 c-2 90 0 124 7 113 6 -8 11 -70 11 -137z m-2838 -178
c2 -243 5 -310 16 -319 25 -21 52 -50 52 -56 0 -4 -11 -17 -25 -30 -25 -23
-25 -23 -65 -5 -54 24 -57 31 -20 50 26 14 30 21 30 59 0 39 -2 44 -20 39 -14
-4 -20 0 -20 11 0 9 8 16 20 16 19 0 20 7 20 215 0 171 -3 215 -13 215 -7 0
-72 -29 -143 -65 -71 -36 -136 -65 -144 -64 -8 0 53 33 136 74 159 77 164 81
164 149 0 16 2 27 5 25 2 -3 5 -144 7 -314z m119 168 l-1 -139 42 -30 c24 -17
64 -41 90 -53 51 -24 88 -67 128 -146 14 -27 47 -71 74 -97 28 -26 47 -51 43
-55 -9 -8 -141 129 -162 168 -8 16 -26 29 -42 32 -33 6 -254 95 -267 108 -6 5
-3 11 6 14 8 3 43 -11 79 -31 67 -38 131 -64 158 -64 20 0 -44 54 -113 96
l-51 30 -3 135 c-3 127 2 188 14 176 3 -3 5 -68 5 -144z m1829 -95 l-1 -243
-47 -22 c-59 -28 -66 -22 -12 12 39 25 41 29 38 68 -3 50 12 427 18 427 2 0 4
-109 4 -242z m615 217 c61 0 70 -8 27 -23 -21 -7 -35 -6 -56 5 -15 8 -30 13
-32 11 -9 -10 10 -138 20 -135 6 2 11 19 11 38 0 33 1 34 50 40 28 4 58 10 68
14 11 5 17 3 17 -7 0 -8 -24 -24 -54 -37 -55 -22 -75 -46 -57 -64 7 -7 7 -15
0 -23 -6 -7 -9 -25 -7 -41 2 -21 8 -28 23 -26 16 1 13 -5 -14 -25 -81 -63
-140 -125 -145 -153 -3 -16 -9 -42 -12 -59 -3 -17 -14 -32 -25 -35 -11 -4 -65
-41 -121 -83 -147 -112 -168 -126 -176 -118 -4 4 1 12 10 17 19 11 152 119
230 187 27 23 52 42 57 42 5 0 14 21 21 47 10 35 29 61 77 108 54 52 63 66 63
97 0 27 -5 37 -25 46 -24 11 -25 15 -25 109 0 66 3 93 10 83 6 -10 26 -15 65
-15z m-2696 -17 c0 -18 -4 -51 -8 -73 -8 -36 -9 -33 -10 33 -1 42 3 72 9 72 6
0 10 -15 9 -32z m3190 -58 c4 0 12 5 19 12 9 9 12 8 12 -5 0 -9 9 -21 21 -27
11 -7 18 -14 16 -17 -3 -2 -18 2 -35 11 -16 8 -32 12 -36 9 -3 -4 -6 -125 -6
-269 l0 -263 26 -20 26 -20 -33 -31 c-19 -16 -37 -30 -41 -30 -5 0 -25 15 -45
34 l-37 34 41 20 c22 12 44 29 47 39 4 10 7 137 6 283 -2 274 0 344 7 278 2
-21 8 -38 12 -38z m118 38 c-3 -7 -5 -2 -5 12 0 14 2 19 5 13 2 -7 2 -19 0
-25z m125 -7 c2 -22 0 -37 -4 -35 -8 5 -11 74 -4 74 2 0 6 -18 8 -39z m-3772
14 c0 -9 -9 -15 -25 -15 -16 0 -25 6 -25 15 0 9 9 15 25 15 16 0 25 -6 25 -15z
m2337 -47 c-2 -13 -4 -3 -4 22 0 25 2 35 4 23 2 -13 2 -33 0 -45z m-2167 13
c14 -12 21 -21 16 -21 -15 0 -76 41 -76 51 0 11 22 0 60 -30z m-580 -5 c0 -19
-7 -25 -36 -30 -19 -4 -42 -10 -50 -13 -10 -4 -14 3 -14 25 0 27 4 31 33 35
66 8 67 8 67 -17z m275 14 c-3 -5 -10 -10 -16 -10 -5 0 -9 5 -9 10 0 6 7 10
16 10 8 0 12 -4 9 -10z m-395 -29 c0 -23 -11 -31 -57 -41 -33 -8 -34 -7 -31
18 3 27 3 27 81 41 4 0 7 -8 7 -18z m-204 -49 c-2 -15 -10 -28 -20 -30 -12 -3
-16 4 -16 31 0 18 3 37 7 40 12 13 31 -14 29 -41z m3394 37 c0 -7 -11 -22 -24
-34 -21 -19 -28 -21 -42 -11 -15 11 -14 15 11 34 30 24 55 29 55 11z m-3310
-19 c0 -11 -6 -20 -14 -20 -18 0 -29 16 -21 30 11 18 35 11 35 -10z m927 -2
c-3 -8 -6 -5 -6 6 -1 11 2 17 5 13 3 -3 4 -12 1 -19z m1109 11 c8 -6 14 -20
14 -31 0 -17 -5 -19 -32 -13 -43 10 -48 13 -48 33 0 21 46 28 66 11z m-2176
-41 c0 -10 -4 -18 -10 -18 -5 0 -10 15 -10 33 0 24 3 28 10 17 5 -8 10 -23 10
-32z m1015 12 c-10 -11 -22 -20 -28 -20 -5 0 1 11 14 24 28 29 40 25 14 -4z
m-165 11 c0 -10 -61 -34 -68 -27 -4 5 47 35 61 36 4 0 7 -4 7 -9z m-972 -30
l10 -29 -56 -11 c-81 -16 -89 -15 -95 16 -5 29 6 43 35 43 14 0 16 -6 11 -31
-5 -25 -3 -31 8 -27 8 3 14 17 14 31 -1 34 13 35 21 2 8 -33 30 -26 26 9 -4
35 13 33 26 -3z m2737 -1 c3 -6 -1 -13 -10 -16 -19 -8 -30 0 -20 15 8 14 22
14 30 1z m516 -22 c0 -18 1 -73 2 -122 1 -64 -2 -90 -10 -93 -10 -4 -13 25
-13 121 0 77 4 126 10 126 6 0 10 -15 11 -32z m-3429 -8 c3 -18 0 -30 -7 -30
-6 0 -12 14 -13 30 -1 17 2 30 7 30 5 0 11 -13 13 -30z m-32 -9 c0 -23 -5 -30
-27 -35 -16 -4 -36 -9 -45 -12 -15 -4 -18 1 -18 30 0 31 3 36 24 36 19 0 23
-4 19 -20 -4 -14 0 -20 12 -20 13 0 16 6 11 25 -5 18 -2 25 9 25 10 0 15 -10
15 -29z m1075 19 c-3 -5 -12 -10 -18 -10 -7 0 -6 4 3 10 19 12 23 12 15 0z
m2272 -12 c-3 -8 -6 -5 -6 6 -1 11 2 17 5 13 3 -3 4 -12 1 -19z m692 -9 c-24
-15 -29 -10 -11 11 10 12 18 16 21 9 2 -6 -3 -15 -10 -20z m-1724 -94 c37 -36
43 -49 59 -127 10 -49 22 -88 27 -88 5 0 48 -33 96 -73 48 -41 98 -79 111 -86
12 -6 22 -18 22 -26 0 -24 -28 -17 -46 11 -10 14 -52 52 -93 84 -110 84 -119
96 -135 179 -16 83 -40 115 -139 183 -32 21 -55 43 -52 48 7 11 94 -50 150
-105z m1001 104 c10 -16 -23 -46 -36 -33 -6 6 -8 18 -4 27 7 19 29 22 40 6z
m3052 -19 c-14 -22 -24 -19 -15 5 4 8 11 15 17 15 6 0 6 -7 -2 -20z m-6488 -4
c0 -8 3 -21 6 -30 3 -9 1 -16 -5 -16 -6 0 -11 9 -11 20 0 10 -8 24 -17 29 -16
9 -16 10 5 11 12 0 22 -6 22 -14z m2887 -18 c-3 -7 -5 -2 -5 12 0 14 2 19 5
13 2 -7 2 -19 0 -25z m-2969 -5 l12 -28 -4 28 c-4 36 9 35 22 -3 11 -31 12
-30 -50 -45 -20 -5 -21 -4 -6 5 15 9 16 14 5 30 -14 24 -27 26 -27 4 0 -9 -6
-14 -12 -11 -7 2 -37 -4 -66 -15 -29 -11 -58 -17 -65 -15 -7 3 -4 8 8 12 11 4
49 21 85 36 36 16 70 29 76 29 5 0 15 -12 22 -27z m6631 5 c-17 -34 -19 -34
-19 -5 0 18 5 27 15 27 13 0 14 -4 4 -22z m89 -8 c4 -12 2 -13 -9 -4 -8 7 -23
14 -34 17 -13 4 -9 5 9 4 16 -1 32 -9 34 -17z m-3904 -21 c28 -41 -18 -77 -55
-43 -22 20 -24 35 -7 52 18 18 45 14 62 -9z m1049 -1 c21 -33 -32 -65 -61 -36
-16 16 -15 23 4 43 19 19 43 16 57 -7z m2801 -4 c3 -8 2 -12 -4 -9 -6 3 -10
10 -10 16 0 14 7 11 14 -7z m-5432 -24 c-19 -16 -28 -18 -44 -9 -17 9 -18 13
-7 20 8 5 28 9 44 9 l30 -1 -23 -19z m3859 -23 c19 -23 24 -38 18 -52 -7 -17
-8 -16 -8 8 -1 20 -6 27 -21 27 -18 0 -20 -7 -20 -59 0 -51 3 -61 20 -66 11
-3 24 -3 30 0 5 3 10 0 10 -7 0 -15 65 -37 140 -47 28 -3 52 -10 53 -16 3 -16
-42 -18 -92 -4 -25 8 -48 14 -51 15 -3 0 -32 14 -65 29 l-60 28 1 81 c1 114 3
117 45 63z m-3570 -63 l-3 -87 28 6 c36 8 -47 -32 -91 -44 -16 -4 -41 -11 -54
-15 -17 -5 -22 -4 -17 4 4 6 34 19 66 28 l60 17 0 88 c0 49 3 89 8 89 4 0 5
-39 3 -86z m49 44 c0 -49 -5 -47 -14 5 -4 23 -3 37 4 37 5 0 10 -19 10 -42z
m2526 13 c-28 -29 -45 -81 -46 -137 0 -28 -12 -42 -92 -108 -51 -42 -130 -108
-176 -147 -46 -39 -86 -69 -88 -66 -3 3 18 24 48 47 29 23 108 95 175 160 114
110 122 120 128 165 5 31 18 59 37 81 17 19 33 34 36 34 3 0 -7 -13 -22 -29z
m-532 -116 c3 -9 -4 -21 -19 -31 -23 -15 -27 -15 -50 0 -14 9 -25 20 -25 24 0
18 33 52 51 52 15 0 19 7 20 38 1 33 2 31 9 -15 4 -29 10 -60 14 -68z m-2704
95 c0 -5 -7 -10 -15 -10 -8 0 -15 5 -15 10 0 6 7 10 15 10 8 0 15 -4 15 -10z
m3920 1 c0 -8 -56 -30 -135 -55 -11 -3 12 9 50 28 75 38 85 41 85 27z m1010
-1 c0 -5 -4 -10 -10 -10 -5 0 -10 5 -10 10 0 6 5 10 10 10 6 0 10 -4 10 -10z
m-2996 -54 c7 -28 113 -129 159 -152 18 -9 65 -37 105 -62 l72 -47 -2 -148
c-1 -81 -5 -150 -10 -153 -4 -3 -8 60 -8 139 l0 145 -117 78 c-114 76 -233
184 -233 211 0 23 28 14 34 -11z m-1359 -21 c0 -13 -8 -21 -22 -23 -17 -3 -23
2 -23 16 0 10 3 22 7 26 13 13 38 1 38 -19z m5089 -10 c7 -20 -17 -47 -37 -39
-20 7 -23 50 -4 57 17 6 34 -2 41 -18z m-4777 -31 c-9 -9 -28 6 -21 18 4 6 10
6 17 -1 6 -6 8 -13 4 -17z m-603 -56 c8 -14 7 -22 -7 -35 -16 -16 -18 -16 -44
3 -34 25 -39 41 -16 47 31 8 55 3 67 -15z m4536 12 c0 -5 -4 -10 -9 -10 -6 0
-13 5 -16 10 -3 6 1 10 9 10 9 0 16 -4 16 -10z m-160 -26 c0 -8 -4 -12 -10 -9
-5 3 -10 13 -10 21 0 8 5 12 10 9 6 -3 10 -13 10 -21z m-4155 7 c-6 -5 -26
-12 -45 -15 -35 -7 -35 -7 -10 8 27 17 70 22 55 7z m2845 -31 c-24 -15 -37
-11 -16 5 11 8 22 12 25 9 3 -3 -1 -9 -9 -14z m210 -22 c-16 -29 -41 -58 -51
-58 -15 0 13 60 34 75 26 18 32 13 17 -17z m-2114 1 c19 -22 19 -22 -3 -10
-13 6 -23 16 -23 21 0 15 5 12 26 -11z m1514 -9 c-20 -16 -69 -53 -110 -82
l-75 -53 -6 -110 c-5 -107 -5 -108 -9 -35 -2 41 -2 86 -1 98 1 13 -3 29 -9 37
-8 9 -2 19 24 38 36 28 208 136 216 136 3 0 -11 -13 -30 -29z m1113 9 c-6 -6
-9 -18 -6 -27 4 -10 2 -13 -5 -8 -18 11 -14 46 5 46 13 0 14 -3 6 -11z m-688
-38 c-13 -13 -85 -43 -85 -36 0 5 78 44 90 45 2 0 0 -4 -5 -9z m85 -29 c0 -9
-17 -19 -168 -103 -99 -55 -128 -67 -139 -58 -15 13 16 34 192 130 65 36 115
49 115 31z m-1873 -71 c59 -34 115 -67 123 -74 12 -10 14 -32 12 -111 -4 -116
-22 -114 -22 2 l0 72 -67 43 c-38 24 -98 60 -136 81 -37 20 -65 42 -61 47 10
16 34 6 151 -60z m-1147 9 c0 -5 -2 -10 -4 -10 -3 0 -8 5 -11 10 -3 6 -1 10 4
10 6 0 11 -4 11 -10z m3080 -25 c25 -30 -11 -72 -51 -60 -43 14 -30 75 16 75
12 0 28 -7 35 -15z m1048 -32 c2 -8 -5 -13 -17 -13 -21 0 -35 13 -24 24 10 10
36 3 41 -11z m-3764 -18 c3 -9 0 -15 -9 -15 -16 0 -27 14 -18 24 10 10 21 7
27 -9z m3616 -5 c0 -5 -4 -10 -10 -10 -5 0 -10 5 -10 10 0 6 5 10 10 10 6 0
10 -4 10 -10z m684 1 c3 -4 -1 -17 -9 -27 -10 -15 -16 -16 -26 -7 -6 6 -9 19
-6 27 7 17 32 22 41 7z m-3613 -11 c20 -11 26 -54 8 -65 -15 -10 -56 3 -62 19
-5 13 18 56 29 56 3 0 14 -5 25 -10z m1618 -67 c0 -32 -4 -80 -9 -108 -6 -42
-8 -33 -9 58 0 65 3 107 9 107 6 0 10 -25 9 -57z m771 27 c0 -5 -7 -10 -15
-10 -8 0 -15 5 -15 10 0 6 7 10 15 10 8 0 15 -4 15 -10z m350 0 c0 -5 -7 -10
-15 -10 -8 0 -15 5 -15 10 0 6 7 10 15 10 8 0 15 -4 15 -10z m530 -5 c8 -9 9
-15 2 -15 -6 0 -13 4 -16 9 -3 4 -18 6 -32 3 -19 -3 -25 -1 -20 7 10 16 51 14
66 -4z m-4652 -21 c2 -1 -1 -5 -7 -8 -5 -4 -15 4 -22 16 -12 22 -11 22 7 8 10
-8 20 -15 22 -16z m4267 -18 c0 -36 -26 -56 -49 -37 -16 14 -22 52 -9 65 4 4
19 6 33 4 20 -2 25 -8 25 -32z m-2395 4 c0 -5 -4 -10 -10 -10 -5 0 -10 5 -10
10 0 6 5 10 10 10 6 0 10 -4 10 -10z m-1822 -33 c2 -10 -3 -17 -12 -17 -10 0
-16 9 -16 21 0 24 23 21 28 -4z m589 -3 c-3 -3 -12 -4 -19 -1 -8 3 -5 6 6 6
11 1 17 -2 13 -5z m35 -9 c0 -5 -5 -11 -11 -13 -6 -2 -11 4 -11 13 0 9 5 15
11 13 6 -2 11 -8 11 -13z m1975 -102 c-2 -16 -4 -5 -4 22 0 28 2 40 4 28 2
-13 2 -35 0 -50z m-680 15 c-3 -7 -5 -2 -5 12 0 14 2 19 5 13 2 -7 2 -19 0
-25z m-1557 -12 c0 -3 -4 -8 -10 -11 -5 -3 -10 -1 -10 4 0 6 5 11 10 11 6 0
10 -2 10 -4z m3350 -27 c0 -5 -4 -9 -10 -9 -5 0 -10 7 -10 16 0 8 5 12 10 9 6
-3 10 -10 10 -16z m-2850 -9 c0 -11 -7 -20 -15 -20 -8 0 -15 9 -15 20 0 11 7
20 15 20 8 0 15 -9 15 -20z m774 -31 c-8 -14 -34 -11 -34 4 0 8 3 17 7 20 9 9
34 -13 27 -24z m1894 -86 c5 -17 -26 -29 -40 -15 -6 6 -7 15 -3 22 9 14 37 9
43 -7z m342 -33 c0 -5 -4 -10 -10 -10 -5 0 -10 5 -10 10 0 6 5 10 10 10 6 0
10 -4 10 -10z m-664 -375 c-5 -14 -9 -15 -21 -5 -12 10 -13 16 -4 27 15 18 34
1 25 -22z"/>
<path d="M6596 8423 c-2 -10 -8 -71 -12 -135 -6 -105 -5 -118 10 -118 9 0 16
6 16 13 1 6 3 64 6 129 3 71 1 119 -5 122 -5 4 -12 -2 -15 -11z"/>
<path d="M6966 8155 c-11 -8 -30 -15 -43 -15 -22 0 -23 -3 -23 -75 l0 -75 30
0 c27 0 30 -3 30 -32 1 -18 7 -44 14 -57 12 -22 13 -19 19 39 9 85 9 230 0
230 -5 0 -17 -7 -27 -15z"/>
<path d="M3468 7903 c-2 -5 -1 -38 2 -75 4 -56 8 -66 20 -58 8 5 14 23 13 46
-1 24 5 42 15 50 22 16 8 44 -22 44 -14 0 -26 -3 -28 -7z"/>
<path d="M7046 7857 c-11 -8 -17 -19 -15 -24 2 -6 12 0 22 13 20 27 19 30 -7
11z"/>
<path d="M7078 7828 c-30 -27 -38 -42 -38 -69 0 -19 7 -44 15 -54 46 -61 54
-69 59 -64 4 4 5 55 4 114 l-3 107 -37 -34z"/>
<path d="M7211 7580 c-13 -11 -29 -20 -37 -20 -8 0 -14 -9 -14 -21 0 -19 4
-18 46 13 25 18 48 36 50 40 10 16 -22 7 -45 -12z"/>
<path d="M7155 7452 c-3 -16 -1 -39 4 -53 8 -20 10 -16 10 29 1 58 -4 67 -14
24z"/>
<path d="M7257 7403 c-12 -12 -7 -23 11 -23 9 0 31 -8 47 -18 17 -10 44 -23
62 -29 36 -13 43 -4 43 48 l0 29 -78 0 c-43 0 -82 -3 -85 -7z"/>
<path d="M3148 7380 c24 -20 52 -17 52 6 0 10 -12 14 -37 14 l-38 -1 23 -19z"/>
<path d="M7830 7185 c-10 -13 -10 -19 5 -35 22 -24 38 -25 55 -5 10 13 10 19
-5 35 -22 24 -38 25 -55 5z"/>
<path d="M2845 7070 c-3 -5 -15 -10 -26 -10 -12 0 -19 -7 -19 -20 0 -28 11
-25 45 10 16 17 24 30 17 30 -6 0 -14 -4 -17 -10z"/>
<path d="M2889 7063 c-13 -16 -12 -17 4 -4 16 13 21 21 13 21 -2 0 -10 -8 -17
-17z"/>
<path d="M2405 7050 c-17 -18 -17 -22 -4 -36 14 -13 17 -13 32 4 14 15 15 21
4 36 -12 16 -14 16 -32 -4z"/>
<path d="M2750 6925 c-19 -19 -31 -35 -26 -35 11 0 71 58 65 64 -3 3 -21 -10
-39 -29z"/>
<path d="M7646 6835 c4 -8 8 -15 10 -15 2 0 4 7 4 15 0 8 -4 15 -10 15 -5 0
-7 -7 -4 -15z"/>
<path d="M1910 6630 c0 -164 3 -212 13 -216 7 -2 40 -29 72 -59 32 -30 62 -55
66 -55 11 0 24 93 13 97 -28 10 -58 30 -61 40 -3 7 18 28 46 48 34 25 52 45
56 66 5 21 12 29 23 27 10 -2 16 -11 14 -22 -5 -28 6 -49 20 -39 7 4 29 13 48
18 41 12 52 46 24 76 -16 18 -15 19 10 28 17 7 26 18 26 33 l0 23 -160 -2
-160 -1 0 32 c0 18 -5 37 -12 44 -9 9 -7 17 10 35 30 32 28 37 -13 37 l-35 0
0 -210z m240 -4 c0 -8 -4 -17 -9 -21 -12 -7 -24 12 -16 25 9 15 25 12 25 -4z"/>
<path d="M2000 6828 c0 -8 14 -18 32 -23 42 -13 45 -29 8 -45 -16 -7 -30 -19
-30 -26 0 -11 28 -14 140 -14 l140 0 0 56 0 55 -82 0 c-46 -1 -111 2 -145 5
-51 5 -63 4 -63 -8z"/>
<path d="M2312 6743 c3 -88 3 -88 31 -91 l27 -3 0 90 0 91 -30 0 -31 0 3 -87z"/>
<path d="M2398 6783 c-5 -57 1 -85 15 -80 22 7 30 35 23 80 -10 63 -33 63 -38
0z"/>
<path d="M7730 6766 c0 -16 54 -71 93 -94 21 -13 27 -24 28 -52 1 -32 2 -33 8
-8 5 21 9 25 21 18 9 -5 19 -5 27 2 10 8 15 4 22 -13 9 -21 10 -19 10 18 1 37
-4 47 -51 92 -50 48 -56 51 -105 51 -39 0 -53 -4 -53 -14z"/>
<path d="M7970 6592 c0 -45 3 -52 19 -52 29 0 35 -17 11 -30 -11 -6 -20 -15
-20 -20 0 -20 60 -70 84 -70 22 0 24 5 28 50 3 50 3 51 -59 112 l-63 62 0 -52z"/>
<path d="M8122 6628 c2 -6 10 -14 16 -16 7 -2 10 2 6 12 -7 18 -28 22 -22 4z"/>
<path d="M2452 6186 c-6 -15 -30 -52 -53 -84 -32 -45 -33 -50 -9 -22 46 51 83
107 78 121 -2 6 -9 -1 -16 -15z"/>
<path d="M1690 6041 c0 -22 10 -37 41 -62 48 -38 64 -34 92 24 13 28 23 37 41
37 14 0 27 4 30 9 6 9 -87 21 -160 21 -42 0 -44 -1 -44 -29z"/>
<path d="M1690 5925 c0 -39 3 -80 6 -93 6 -23 7 -22 21 5 24 46 22 109 -5 135
l-22 22 0 -69z"/>
<path d="M2353 5820 c0 -25 2 -35 4 -22 2 12 2 32 0 45 -2 12 -4 2 -4 -23z"/>
<path d="M2206 5815 c-9 -14 -24 -37 -33 -52 l-17 -28 23 20 c24 21 56 74 48
81 -2 3 -12 -7 -21 -21z"/>
<path d="M7365 8560 c-33 -36 9 -78 45 -45 26 23 25 29 -4 48 -22 15 -25 15
-41 -3z"/>
<path d="M3203 8255 c-3 -9 3 -25 13 -36 17 -19 19 -19 31 -3 11 15 10 21 -4
36 -20 22 -32 23 -40 3z"/>
<path d="M5117 7463 c-4 -3 -7 -13 -7 -22 1 -13 3 -13 11 2 11 19 8 33 -4 20z"/>
<path d="M5686 6898 c13 -23 37 -48 46 -48 5 0 0 14 -12 30 -20 29 -49 43 -34
18z"/>
<path d="M7901 7416 c-9 -11 -9 -19 1 -35 15 -25 31 -27 48 -6 10 13 10 19 -5
35 -21 24 -29 25 -44 6z"/>
<path d="M1800 7009 c-7 -11 -9 -27 -6 -35 7 -19 40 -18 56 1 10 13 10 19 -5
35 -23 25 -32 25 -45 -1z"/>
<path d="M8988 5579 c-35 -20 -11 -75 28 -67 31 6 40 34 20 57 -22 24 -24 24
-48 10z"/>
<path d="M8820 5571 c-41 -5 -56 -10 -58 -23 -3 -16 6 -18 82 -18 47 0 89 0
94 0 4 0 8 11 10 25 3 23 1 25 -35 23 -21 -1 -63 -4 -93 -7z"/>
<path d="M4710 5870 c0 -5 10 -15 23 -21 22 -12 22 -12 3 10 -21 23 -26 26
-26 11z"/>
<path d="M3489 5569 c-10 -6 -4 -9 19 -9 17 0 32 2 32 4 0 9 -39 13 -51 5z"/>
<path d="M3768 5563 c12 -2 32 -2 45 0 12 2 2 4 -23 4 -25 0 -35 -2 -22 -4z"/>
<path d="M7518 4853 c7 -3 16 -2 19 1 4 3 -2 6 -13 5 -11 0 -14 -3 -6 -6z"/>
<path d="M2640 4825 c-14 -8 -20 -14 -15 -14 6 0 21 6 35 14 14 8 21 14 15 14
-5 0 -21 -6 -35 -14z"/>
<path d="M3036 4795 c-47 -16 -91 -55 -63 -55 9 0 17 -4 17 -9 0 -6 24 6 52
25 29 19 61 34 72 34 24 0 18 5 -14 13 -14 3 -43 -1 -64 -8z"/>
<path d="M5000 4048 c0 -20 44 -25 161 -20 93 5 125 22 41 22 -27 0 -83 3
-125 6 -65 6 -77 5 -77 -8z"/>
<path d="M1605 3454 c-3 -21 -12 -70 -20 -109 -14 -73 -39 -212 -50 -277 -5
-35 -4 -38 17 -38 52 1 210 30 224 41 28 23 41 63 53 164 7 55 19 129 27 164
9 39 11 68 5 74 -5 5 -63 11 -129 14 l-121 6 -6 -39z"/>
<path d="M5243 3385 c-20 -38 -87 -334 -78 -343 9 -9 113 -15 150 -8 22 5 35
13 35 23 0 16 -75 293 -89 328 -8 20 -8 20 -18 0z"/>
<path d="M4276 3435 c-5 -14 -17 -208 -31 -494 l-6 -123 73 4 c49 2 86 10 113
24 49 25 53 45 55 219 0 66 7 174 15 240 10 84 11 123 3 132 -16 20 -214 18
-222 -2z"/>
<path d="M7020 3374 c0 -6 -11 -75 -24 -155 -13 -79 -27 -167 -31 -196 l-7
-51 86 -7 c47 -4 92 -5 99 -2 15 6 2 65 -65 282 -27 89 -58 158 -58 129z"/>
<path d="M2532 3281 c-17 -43 -36 -98 -41 -122 -6 -24 -26 -88 -45 -143 l-35
-98 89 4 c51 2 95 9 102 16 9 9 8 50 -5 179 -10 93 -17 182 -17 200 0 57 -17
44 -48 -36z"/>
<path d="M3599 1574 c-9 -11 -10 -20 -3 -32 16 -25 29 -24 44 3 12 23 12 28 0
35 -20 13 -26 12 -41 -6z"/>
<path d="M6612 1568 c-16 -16 -15 -25 4 -32 22 -9 60 24 42 36 -18 11 -32 10
-46 -4z"/>
</g>
</svg>
